<?xml version="1.0" encoding="UTF-8" standalone="no"?>
<svg
   xmlns:dc="http://purl.org/dc/elements/1.1/"
   xmlns:cc="http://creativecommons.org/ns#"
   xmlns:rdf="http://www.w3.org/1999/02/22-rdf-syntax-ns#"
   xmlns:svg="http://www.w3.org/2000/svg"
   xmlns="http://www.w3.org/2000/svg"
   xmlns:sodipodi="http://sodipodi.sourceforge.net/DTD/sodipodi-0.dtd"
   xmlns:inkscape="http://www.inkscape.org/namespaces/inkscape"
   style="fill-opacity:1; color-rendering:auto; color-interpolation:auto; text-rendering:auto; stroke:black; stroke-linecap:square; stroke-miterlimit:10; shape-rendering:auto; stroke-opacity:1; fill:black; stroke-dasharray:none; font-weight:normal; stroke-width:1; font-family:'Dialog'; font-style:normal; stroke-linejoin:miter; font-size:12px; stroke-dashoffset:0; image-rendering:auto;"
   width="1360"
   height="651"
   version="1.1"
   id="svg299"
   sodipodi:docname="theta4.svg"
   inkscape:version="0.92.4 (5da689c313, 2019-01-14)">
  <metadata
     id="metadata303">
    <rdf:RDF>
      <cc:Work
         rdf:about="">
        <dc:format>image/svg+xml</dc:format>
        <dc:type
           rdf:resource="http://purl.org/dc/dcmitype/StillImage" />
      </cc:Work>
    </rdf:RDF>
  </metadata>
  <sodipodi:namedview
     pagecolor="#ffffff"
     bordercolor="#666666"
     borderopacity="1"
     objecttolerance="10"
     gridtolerance="10"
     guidetolerance="10"
     inkscape:pageopacity="0"
     inkscape:pageshadow="2"
     inkscape:window-width="1920"
     inkscape:window-height="1017"
     id="namedview301"
     showgrid="false"
     inkscape:zoom="0.22279412"
     inkscape:cx="680"
     inkscape:cy="325.5"
     inkscape:window-x="-8"
     inkscape:window-y="-8"
     inkscape:window-maximized="1"
     inkscape:current-layer="svg299" />
  <!--Generated by the Batik Graphics2D SVG Generator-->
  <defs
     id="genericDefs" />
  <g
     id="g297"
     inkscape:export-xdpi="96"
     inkscape:export-ydpi="96">
    <defs
       id="defs1">
      <clipPath
         clipPathUnits="userSpaceOnUse"
         id="clipPath1">
        <path
           d="M0 0 L1360 0 L1360 651 L0 651 L0 0 Z"
           id="path3" />
      </clipPath>
    </defs>
    <g
       style="fill:white; stroke:white;"
       id="g9">
      <rect
         x="0"
         y="0"
         width="1360"
         style="clip-path:url(#clipPath1); stroke:none;"
         height="651"
         clip-path="url(#clipPath1)"
         id="rect7" />
    </g>
    <g
       style="fill:white; text-rendering:optimizeSpeed; color-rendering:optimizeSpeed; image-rendering:optimizeSpeed; shape-rendering:crispEdges; stroke:white; color-interpolation:sRGB;"
       id="g15">
      <rect
         x="0"
         width="1360"
         height="651"
         y="0"
         style="stroke:none;"
         id="rect11" />
      <path
         style="stroke:none;"
         d="M177 549 L1231 549 L1231 49 L177 49 Z"
         id="path13" />
    </g>
    <g
       style="stroke-linecap:butt; fill-opacity:0.149; fill:rgb(38,38,38); text-rendering:geometricPrecision; image-rendering:optimizeQuality; color-rendering:optimizeQuality; stroke-linejoin:round; stroke:rgb(38,38,38); color-interpolation:linearRGB; stroke-width:0.6667; stroke-opacity:0.149;"
       id="g67">
      <line
         y2="49"
         style="fill:none;"
         x1="177"
         x2="177"
         y1="549"
         id="line17" />
      <line
         y2="49"
         style="fill:none;"
         x1="387.8"
         x2="387.8"
         y1="549"
         id="line19" />
      <line
         y2="49"
         style="fill:none;"
         x1="598.6"
         x2="598.6"
         y1="549"
         id="line21" />
      <line
         y2="49"
         style="fill:none;"
         x1="809.4"
         x2="809.4"
         y1="549"
         id="line23" />
      <line
         y2="49"
         style="fill:none;"
         x1="1020.2"
         x2="1020.2"
         y1="549"
         id="line25" />
      <line
         y2="49"
         style="fill:none;"
         x1="1231"
         x2="1231"
         y1="549"
         id="line27" />
      <line
         y2="549"
         style="fill:none;"
         x1="1231"
         x2="177"
         y1="549"
         id="line29" />
      <line
         y2="424"
         style="fill:none;"
         x1="1231"
         x2="177"
         y1="424"
         id="line31" />
      <line
         y2="299"
         style="fill:none;"
         x1="1231"
         x2="177"
         y1="299"
         id="line33" />
      <line
         y2="174"
         style="fill:none;"
         x1="1231"
         x2="177"
         y1="174"
         id="line35" />
      <line
         y2="49"
         style="fill:none;"
         x1="1231"
         x2="177"
         y1="49"
         id="line37" />
      <line
         x1="177"
         x2="1231"
         y1="549"
         style="stroke-linecap:square; fill-opacity:1; fill:none; stroke-opacity:1;"
         y2="549"
         id="line39" />
      <line
         x1="177"
         x2="1231"
         y1="49"
         style="stroke-linecap:square; fill-opacity:1; fill:none; stroke-opacity:1;"
         y2="49"
         id="line41" />
      <line
         x1="177"
         x2="177"
         y1="549"
         style="stroke-linecap:square; fill-opacity:1; fill:none; stroke-opacity:1;"
         y2="538.46"
         id="line43" />
      <line
         x1="387.8"
         x2="387.8"
         y1="549"
         style="stroke-linecap:square; fill-opacity:1; fill:none; stroke-opacity:1;"
         y2="538.46"
         id="line45" />
      <line
         x1="598.6"
         x2="598.6"
         y1="549"
         style="stroke-linecap:square; fill-opacity:1; fill:none; stroke-opacity:1;"
         y2="538.46"
         id="line47" />
      <line
         x1="809.4"
         x2="809.4"
         y1="549"
         style="stroke-linecap:square; fill-opacity:1; fill:none; stroke-opacity:1;"
         y2="538.46"
         id="line49" />
      <line
         x1="1020.2"
         x2="1020.2"
         y1="549"
         style="stroke-linecap:square; fill-opacity:1; fill:none; stroke-opacity:1;"
         y2="538.46"
         id="line51" />
      <line
         x1="1231"
         x2="1231"
         y1="549"
         style="stroke-linecap:square; fill-opacity:1; fill:none; stroke-opacity:1;"
         y2="538.46"
         id="line53" />
      <line
         x1="177"
         x2="177"
         y1="49"
         style="stroke-linecap:square; fill-opacity:1; fill:none; stroke-opacity:1;"
         y2="59.54"
         id="line55" />
      <line
         x1="387.8"
         x2="387.8"
         y1="49"
         style="stroke-linecap:square; fill-opacity:1; fill:none; stroke-opacity:1;"
         y2="59.54"
         id="line57" />
      <line
         x1="598.6"
         x2="598.6"
         y1="49"
         style="stroke-linecap:square; fill-opacity:1; fill:none; stroke-opacity:1;"
         y2="59.54"
         id="line59" />
      <line
         x1="809.4"
         x2="809.4"
         y1="49"
         style="stroke-linecap:square; fill-opacity:1; fill:none; stroke-opacity:1;"
         y2="59.54"
         id="line61" />
      <line
         x1="1020.2"
         x2="1020.2"
         y1="49"
         style="stroke-linecap:square; fill-opacity:1; fill:none; stroke-opacity:1;"
         y2="59.54"
         id="line63" />
      <line
         x1="1231"
         x2="1231"
         y1="49"
         style="stroke-linecap:square; fill-opacity:1; fill:none; stroke-opacity:1;"
         y2="59.54"
         id="line65" />
    </g>
    <g
       transform="translate(177,558.9333)"
       style="font-size:36.3333px; fill:rgb(38,38,38); text-rendering:geometricPrecision; image-rendering:optimizeQuality; color-rendering:optimizeQuality; font-family:'mwa_cmr10'; stroke:rgb(38,38,38); color-interpolation:linearRGB;"
       id="g71">
      <path
         style="stroke:none;"
         d="M-0.0833 31.3167 Q-4.4896 31.3167 -6.0833 27.6839 Q-7.6771 24.0511 -7.6771 19.0355 Q-7.6771 15.9105 -7.1068 13.1527 Q-6.5365 10.3949 -4.8411 8.4652 Q-3.1458 6.5355 -0.0833 6.5355 Q2.2917 6.5355 3.7995 7.6996 Q5.3073 8.8636 6.1042 10.6996 Q6.901 12.5355 7.1901 14.6371 Q7.4792 16.7386 7.4792 19.0355 Q7.4792 22.1292 6.9089 24.8324 Q6.3385 27.5355 4.6667 29.4261 Q2.9948 31.3167 -0.0833 31.3167 ZM-0.0833 30.3792 Q1.9167 30.3792 2.901 28.3246 Q3.8854 26.2699 4.1198 23.7699 Q4.3542 21.2699 4.3542 18.4574 Q4.3542 15.7542 4.1198 13.4652 Q3.8854 11.1761 2.9089 9.3246 Q1.9323 7.473 -0.0833 7.473 Q-2.1146 7.473 -3.099 9.3402 Q-4.0833 11.2074 -4.3177 13.4808 Q-4.5521 15.7542 -4.5521 18.4574 Q-4.5521 20.4574 -4.4505 22.2386 Q-4.349 24.0199 -3.9271 25.9105 Q-3.5052 27.8011 -2.5677 29.0902 Q-1.6302 30.3792 -0.0833 30.3792 Z"
         id="path69" />
    </g>
    <g
       transform="translate(387.8,558.9333)"
       style="font-size:36.3333px; fill:rgb(38,38,38); text-rendering:geometricPrecision; image-rendering:optimizeQuality; color-rendering:optimizeQuality; font-family:'mwa_cmr10'; stroke:rgb(38,38,38); color-interpolation:linearRGB;"
       id="g75">
      <path
         style="stroke:none;"
         d="M-5.7396 30.5199 L-5.7396 29.2542 Q-1.2396 29.2542 -1.2396 28.1136 L-1.2396 9.2074 Q-3.099 10.1136 -5.9583 10.1136 L-5.9583 8.848 Q-1.5365 8.848 0.7135 6.5355 L1.2135 6.5355 Q1.3385 6.5355 1.4557 6.6371 Q1.5729 6.7386 1.5729 6.8636 L1.5729 28.1136 Q1.5729 29.2542 6.0729 29.2542 L6.0729 30.5199 L-5.7396 30.5199 Z"
         id="path73" />
    </g>
    <g
       transform="translate(598.6,558.9333)"
       style="font-size:36.3333px; fill:rgb(38,38,38); text-rendering:geometricPrecision; image-rendering:optimizeQuality; color-rendering:optimizeQuality; font-family:'mwa_cmr10'; stroke:rgb(38,38,38); color-interpolation:linearRGB;"
       id="g79">
      <path
         style="stroke:none;"
         d="M-7.2865 30.5199 L-7.2865 29.5511 Q-7.2865 29.4574 -7.224 29.3636 L-1.6302 23.1761 Q-0.3646 21.8011 0.4245 20.8714 Q1.2135 19.9417 1.987 18.723 Q2.7604 17.5042 3.2135 16.2542 Q3.6667 15.0042 3.6667 13.598 Q3.6667 12.1136 3.1198 10.7699 Q2.5729 9.4261 1.4948 8.6136 Q0.4167 7.8011 -1.1146 7.8011 Q-2.6771 7.8011 -3.9271 8.7464 Q-5.1771 9.6917 -5.6927 11.1761 Q-5.5521 11.1449 -5.3021 11.1449 Q-4.4896 11.1449 -3.9193 11.6917 Q-3.349 12.2386 -3.349 13.098 Q-3.349 13.9261 -3.9193 14.4964 Q-4.4896 15.0667 -5.3021 15.0667 Q-6.1458 15.0667 -6.7161 14.4808 Q-7.2865 13.8949 -7.2865 13.098 Q-7.2865 11.7386 -6.7786 10.5589 Q-6.2708 9.3792 -5.3099 8.4496 Q-4.349 7.5199 -3.1458 7.0277 Q-1.9427 6.5355 -0.599 6.5355 Q1.4635 6.5355 3.237 7.4105 Q5.0104 8.2855 6.0495 9.8714 Q7.0885 11.4574 7.0885 13.598 Q7.0885 15.1605 6.401 16.5667 Q5.7135 17.973 4.6432 19.1214 Q3.5729 20.2699 1.901 21.7308 Q0.2292 23.1917 -0.2865 23.6761 L-4.3646 27.598 L-0.9115 27.598 Q1.6354 27.598 3.3542 27.5589 Q5.0729 27.5199 5.1667 27.4261 Q5.5885 26.973 6.0417 24.098 L7.0885 24.098 L6.0729 30.5199 L-7.2865 30.5199 Z"
         id="path77" />
    </g>
    <g
       transform="translate(809.4,558.9333)"
       style="font-size:36.3333px; fill:rgb(38,38,38); text-rendering:geometricPrecision; image-rendering:optimizeQuality; color-rendering:optimizeQuality; font-family:'mwa_cmr10'; stroke:rgb(38,38,38); color-interpolation:linearRGB;"
       id="g83">
      <path
         style="stroke:none;"
         d="M-5.6615 27.7386 Q-4.8177 28.973 -3.388 29.5667 Q-1.9583 30.1605 -0.3333 30.1605 Q1.7604 30.1605 2.6432 28.3792 Q3.526 26.598 3.526 24.3324 Q3.526 23.3167 3.3385 22.2933 Q3.151 21.2699 2.7135 20.3949 Q2.276 19.5199 1.5104 18.9886 Q0.7448 18.4574 -0.3646 18.4574 L-2.7552 18.4574 Q-3.0677 18.4574 -3.0677 18.1292 L-3.0677 17.8167 Q-3.0677 17.5355 -2.7552 17.5355 L-0.7708 17.3636 Q0.4948 17.3636 1.3307 16.4183 Q2.1667 15.473 2.5573 14.1136 Q2.9479 12.7542 2.9479 11.5199 Q2.9479 9.8011 2.1354 8.6917 Q1.3229 7.5824 -0.3333 7.5824 Q-1.6927 7.5824 -2.9427 8.098 Q-4.1927 8.6136 -4.9271 9.6761 Q-4.8646 9.6605 -4.8099 9.6449 Q-4.7552 9.6292 -4.6927 9.6292 Q-3.8802 9.6292 -3.3333 10.1917 Q-2.7865 10.7542 -2.7865 11.5511 Q-2.7865 12.3324 -3.3333 12.8949 Q-3.8802 13.4574 -4.6927 13.4574 Q-5.474 13.4574 -6.0365 12.8949 Q-6.599 12.3324 -6.599 11.5511 Q-6.599 10.0042 -5.6693 8.8636 Q-4.7396 7.723 -3.2708 7.1292 Q-1.8021 6.5355 -0.3333 6.5355 Q0.7604 6.5355 1.9714 6.8636 Q3.1823 7.1917 4.1667 7.8011 Q5.151 8.4105 5.776 9.3558 Q6.401 10.3011 6.401 11.5199 Q6.401 13.0355 5.7292 14.3167 Q5.0573 15.598 3.8776 16.5277 Q2.6979 17.4574 1.2917 17.9105 Q2.8542 18.2074 4.2604 19.0902 Q5.6667 19.973 6.5182 21.3402 Q7.3698 22.7074 7.3698 24.3011 Q7.3698 26.2855 6.2839 27.8949 Q5.1979 29.5042 3.4167 30.4105 Q1.6354 31.3167 -0.3333 31.3167 Q-2.0208 31.3167 -3.7161 30.6683 Q-5.4115 30.0199 -6.4896 28.7386 Q-7.5677 27.4574 -7.5677 25.6605 Q-7.5677 24.7699 -6.974 24.1761 Q-6.3802 23.5824 -5.474 23.5824 Q-4.8958 23.5824 -4.4115 23.848 Q-3.9271 24.1136 -3.6536 24.6058 Q-3.3802 25.098 -3.3802 25.6605 Q-3.3802 26.5511 -3.9974 27.1449 Q-4.6146 27.7386 -5.474 27.7386 L-5.6615 27.7386 Z"
         id="path81" />
    </g>
    <g
       transform="translate(1020.2,558.9333)"
       style="font-size:36.3333px; fill:rgb(38,38,38); text-rendering:geometricPrecision; image-rendering:optimizeQuality; color-rendering:optimizeQuality; font-family:'mwa_cmr10'; stroke:rgb(38,38,38); color-interpolation:linearRGB;"
       id="g87">
      <path
         style="stroke:none;"
         d="M-8.0833 24.5824 L-8.0833 23.3167 L3.0417 6.723 Q3.1667 6.5355 3.4167 6.5355 L3.9479 6.5355 Q4.3542 6.5355 4.3542 6.9417 L4.3542 23.3167 L7.8854 23.3167 L7.8854 24.5824 L4.3542 24.5824 L4.3542 28.1136 Q4.3542 28.848 5.4089 29.0511 Q6.4635 29.2542 7.8385 29.2542 L7.8385 30.5199 L-2.0677 30.5199 L-2.0677 29.2542 Q-0.6771 29.2542 0.3776 29.0511 Q1.4323 28.848 1.4323 28.1136 L1.4323 24.5824 L-8.0833 24.5824 ZM-6.8802 23.3167 L1.6354 23.3167 L1.6354 10.5667 L-6.8802 23.3167 Z"
         id="path85" />
    </g>
    <g
       transform="translate(1231,558.9333)"
       style="font-size:36.3333px; fill:rgb(38,38,38); text-rendering:geometricPrecision; image-rendering:optimizeQuality; color-rendering:optimizeQuality; font-family:'mwa_cmr10'; stroke:rgb(38,38,38); color-interpolation:linearRGB;"
       id="g91">
      <path
         style="stroke:none;"
         d="M-5.9583 26.4261 Q-5.5833 27.473 -4.8177 28.3402 Q-4.0521 29.2074 -3.0052 29.6839 Q-1.9583 30.1605 -0.8333 30.1605 Q1.7604 30.1605 2.7448 28.1449 Q3.7292 26.1292 3.7292 23.2386 Q3.7292 21.9886 3.6901 21.1371 Q3.651 20.2855 3.4479 19.5042 Q3.1198 18.2386 2.2839 17.2855 Q1.4479 16.3324 0.2292 16.3324 Q-0.974 16.3324 -1.849 16.6996 Q-2.724 17.0667 -3.263 17.5589 Q-3.8021 18.0511 -4.224 18.598 Q-4.6458 19.1449 -4.7552 19.1761 L-5.1615 19.1761 Q-5.2552 19.1761 -5.388 19.0667 Q-5.5208 18.9574 -5.5208 18.848 L-5.5208 6.8167 Q-5.5208 6.7386 -5.4036 6.6371 Q-5.2865 6.5355 -5.1615 6.5355 L-5.0521 6.5355 Q-2.6302 7.7074 0.0885 7.7074 Q2.7604 7.7074 5.2448 6.5355 L5.3542 6.5355 Q5.4792 6.5355 5.5807 6.6292 Q5.6823 6.723 5.6823 6.8167 L5.6823 7.1605 Q5.6823 7.3324 5.6198 7.3324 Q4.3854 8.973 2.526 9.8871 Q0.6667 10.8011 -1.3177 10.8011 Q-2.7552 10.8011 -4.2708 10.3949 L-4.2708 17.1917 Q-3.0677 16.223 -2.1302 15.8089 Q-1.1927 15.3949 0.276 15.3949 Q2.2604 15.3949 3.8307 16.5433 Q5.401 17.6917 6.2448 19.5277 Q7.0885 21.3636 7.0885 23.2699 Q7.0885 25.4417 6.026 27.2855 Q4.9635 29.1292 3.1354 30.223 Q1.3073 31.3167 -0.8333 31.3167 Q-2.6146 31.3167 -4.099 30.4027 Q-5.5833 29.4886 -6.4349 27.9417 Q-7.2865 26.3949 -7.2865 24.6449 Q-7.2865 23.8324 -6.763 23.3246 Q-6.2396 22.8167 -5.4427 22.8167 Q-4.6458 22.8167 -4.1146 23.3402 Q-3.5833 23.8636 -3.5833 24.6449 Q-3.5833 25.4261 -4.1146 25.9574 Q-4.6458 26.4886 -5.4427 26.4886 Q-5.5677 26.4886 -5.724 26.4652 Q-5.8802 26.4417 -5.9583 26.4261 Z"
         id="path89" />
    </g>
    <g
       transform="translate(704.0005,602.8666)"
       style="font-size:39.9667px; fill:rgb(38,38,38); text-rendering:geometricPrecision; image-rendering:optimizeQuality; color-rendering:optimizeQuality; font-family:'mwa_cmr10'; stroke:rgb(38,38,38); color-interpolation:linearRGB;"
       id="g109">
      <path
         style="stroke:none;"
         d="M-82.1603 33.5719 L-82.1603 32.1656 Q-80.1603 32.1656 -78.2619 31.939 Q-76.3635 31.7125 -76.3635 30.9 L-76.3635 8.9156 Q-76.3635 8.0562 -76.84 7.8531 Q-77.3166 7.65 -78.3947 7.65 L-80.0822 7.65 Q-83.3791 7.65 -84.7697 9.1031 Q-85.4885 9.8219 -85.801 11.4156 Q-86.1135 13.0094 -86.3322 15.4 L-87.4728 15.4 L-86.7228 6.2437 L-62.2853 6.2437 L-61.5197 15.4 L-62.6916 15.4 Q-62.926 12.8219 -63.2072 11.314 Q-63.4885 9.8062 -64.2385 9.1031 Q-65.6447 7.65 -68.926 7.65 L-70.5978 7.65 Q-71.3322 7.65 -71.7306 7.7125 Q-72.1291 7.775 -72.3791 8.0562 Q-72.6291 8.3375 -72.6291 8.9156 L-72.6291 30.9 Q-72.6291 31.7125 -70.7385 31.939 Q-68.8478 32.1656 -66.8478 32.1656 L-66.8478 33.5719 L-82.1603 33.5719 Z"
         id="path93" />
      <path
         style="stroke:none;"
         d="M-53.423 34.025 Q-55.8761 34.025 -57.9151 32.7437 Q-59.9542 31.4625 -61.1183 29.3219 Q-62.2823 27.1812 -62.2823 24.8062 Q-62.2823 22.4625 -61.212 20.3531 Q-60.1417 18.2437 -58.2433 16.939 Q-56.3448 15.6344 -54.0011 15.6344 Q-52.1573 15.6344 -50.798 16.2515 Q-49.4386 16.8687 -48.5636 17.9625 Q-47.6886 19.0562 -47.2355 20.5406 Q-46.7823 22.025 -46.7823 23.8062 Q-46.7823 24.3375 -47.2042 24.3375 L-58.7823 24.3375 L-58.7823 24.7594 Q-58.7823 28.0875 -57.4464 30.4703 Q-56.1105 32.8531 -53.0792 32.8531 Q-51.8448 32.8531 -50.798 32.3062 Q-49.7511 31.7594 -48.9855 30.7828 Q-48.2198 29.8062 -47.9386 28.6812 Q-47.9073 28.5562 -47.798 28.4469 Q-47.6886 28.3375 -47.548 28.3375 L-47.2042 28.3375 Q-46.7823 28.3375 -46.7823 28.8375 Q-47.3605 31.1031 -49.2355 32.564 Q-51.1105 34.025 -53.423 34.025 ZM-58.7355 23.3375 L-49.6261 23.3375 Q-49.6261 21.8375 -50.0401 20.2906 Q-50.4542 18.7437 -51.4308 17.7203 Q-52.4073 16.6969 -54.0011 16.6969 Q-56.2667 16.6969 -57.5011 18.814 Q-58.7355 20.9312 -58.7355 23.3375 Z"
         id="path95" />
      <path
         style="stroke:none;"
         d="M-44.4413 33.5719 L-44.4413 32.1656 Q-43.0663 32.1656 -42.1913 31.9469 Q-41.3163 31.7281 -41.3163 30.9 L-41.3163 19.9781 Q-41.3163 18.9 -41.6366 18.4234 Q-41.9569 17.9469 -42.5584 17.8375 Q-43.16 17.7281 -44.4413 17.7281 L-44.4413 16.3219 L-38.6288 15.9 L-38.6288 19.8062 Q-37.8319 18.0875 -36.2616 16.9937 Q-34.6913 15.9 -32.8319 15.9 Q-28.2225 15.9 -27.4256 19.65 Q-26.6288 17.9625 -25.0819 16.9312 Q-23.535 15.9 -21.7069 15.9 Q-19.8788 15.9 -18.6444 16.4859 Q-17.41 17.0719 -16.785 18.2672 Q-16.16 19.4625 -16.16 21.2906 L-16.16 30.9 Q-16.16 31.7281 -15.2694 31.9469 Q-14.3788 32.1656 -13.035 32.1656 L-13.035 33.5719 L-22.1913 33.5719 L-22.1913 32.1656 Q-20.8163 32.1656 -19.9413 31.9469 Q-19.0663 31.7281 -19.0663 30.9 L-19.0663 21.4 Q-19.0663 19.3844 -19.6288 18.1578 Q-20.1913 16.9312 -21.9569 16.9312 Q-24.2538 16.9312 -25.7616 18.7828 Q-27.2694 20.6344 -27.2694 23.0094 L-27.2694 30.9 Q-27.2694 31.7281 -26.3866 31.9469 Q-25.5038 32.1656 -24.1444 32.1656 L-24.1444 33.5719 L-33.3006 33.5719 L-33.3006 32.1656 Q-31.9413 32.1656 -31.0584 31.9469 Q-30.1756 31.7281 -30.1756 30.9 L-30.1756 21.4 Q-30.1756 19.4469 -30.7459 18.189 Q-31.3163 16.9312 -33.0663 16.9312 Q-35.3944 16.9312 -36.8866 18.7828 Q-38.3788 20.6344 -38.3788 23.0094 L-38.3788 30.9 Q-38.3788 31.7281 -37.5038 31.9469 Q-36.6288 32.1656 -35.2694 32.1656 L-35.2694 33.5719 L-44.4413 33.5719 Z"
         id="path97" />
      <path
         style="stroke:none;"
         d="M-11.2918 41.3219 L-11.2918 39.9469 Q-9.9168 39.9469 -9.0418 39.7125 Q-8.1668 39.4781 -8.1668 38.65 L-8.1668 19.3687 Q-8.1668 18.275 -8.9481 18.0015 Q-9.7293 17.7281 -11.2918 17.7281 L-11.2918 16.3219 L-5.37 15.9 L-5.37 18.3687 Q-4.2762 17.1656 -2.8231 16.5328 Q-1.37 15.9 0.2707 15.9 Q2.6457 15.9 4.5363 17.1734 Q6.4269 18.4469 7.4894 20.5328 Q8.5519 22.6187 8.5519 24.9312 Q8.5519 27.3531 7.3722 29.4469 Q6.1925 31.5406 4.1535 32.7828 Q2.1144 34.025 -0.3231 34.025 Q-3.245 34.025 -5.245 31.65 L-5.245 38.65 Q-5.245 39.4781 -4.3622 39.7125 Q-3.4793 39.9469 -2.12 39.9469 L-2.12 41.3219 L-11.2918 41.3219 ZM-5.245 29.6812 Q-4.5418 31.1031 -3.2918 32.0328 Q-2.0418 32.9625 -0.5575 32.9625 Q0.8175 32.9625 1.8878 32.2203 Q2.9582 31.4781 3.6769 30.2281 Q4.3957 28.9781 4.7394 27.6031 Q5.0832 26.2281 5.0832 24.9312 Q5.0832 23.3375 4.505 21.4703 Q3.9269 19.6031 2.7472 18.3219 Q1.5675 17.0406 -0.12 17.0406 Q-1.7293 17.0406 -3.0887 17.8765 Q-4.4481 18.7125 -5.245 20.1344 L-5.245 29.6812 Z"
         id="path99" />
      <path
         style="stroke:none;"
         d="M20.9909 34.025 Q18.5846 34.025 16.5378 32.7984 Q14.4909 31.5719 13.2956 29.525 Q12.1003 27.4781 12.1003 25.0562 Q12.1003 23.2125 12.7565 21.5172 Q13.4128 19.8219 14.6315 18.4859 Q15.8503 17.15 17.4753 16.3922 Q19.1003 15.6344 20.9909 15.6344 Q23.4596 15.6344 25.4753 16.939 Q27.4909 18.2437 28.6628 20.4156 Q29.8346 22.5875 29.8346 25.0562 Q29.8346 27.4625 28.6471 29.5172 Q27.4596 31.5719 25.4206 32.7984 Q23.3815 34.025 20.9909 34.025 ZM20.9909 32.8531 Q24.194 32.8531 25.2721 30.525 Q26.3503 28.1969 26.3503 24.6031 Q26.3503 22.5875 26.1315 21.275 Q25.9128 19.9625 25.194 18.8844 Q24.7409 18.2125 24.0456 17.7203 Q23.3503 17.2281 22.5846 16.9625 Q21.819 16.6969 20.9909 16.6969 Q19.7409 16.6969 18.6159 17.2594 Q17.4909 17.8219 16.7565 18.8844 Q16.0065 20.0094 15.8034 21.3687 Q15.6003 22.7281 15.6003 24.6031 Q15.6003 26.8531 15.9909 28.6422 Q16.3815 30.4312 17.5612 31.6422 Q18.7409 32.8531 20.9909 32.8531 Z"
         id="path101" />
      <path
         style="stroke:none;"
         d="M55.692 43.5719 L55.692 3.5719 L61.1607 3.5719 L61.1607 5.1656 L57.2857 5.1656 L57.2857 41.9781 L61.1607 41.9781 L61.1607 43.5719 L55.692 43.5719 Z"
         id="path103" />
      <path
         style="stroke:none;"
         d="M63.3876 33.6969 L63.3876 27.1656 Q63.3876 26.8531 63.747 26.8531 L64.2314 26.8531 Q64.4658 26.8531 64.5439 27.1656 Q65.6533 32.9625 69.9345 32.9625 Q71.8251 32.9625 73.1064 32.1031 Q74.3876 31.2437 74.3876 29.4469 Q74.3876 28.1656 73.3876 27.2515 Q72.3876 26.3375 71.0283 26.0094 L68.3564 25.4781 Q66.997 25.1969 65.8954 24.5875 Q64.7939 23.9781 64.0908 22.9703 Q63.3876 21.9625 63.3876 20.6344 Q63.3876 18.8844 64.3173 17.7594 Q65.247 16.6344 66.7314 16.1344 Q68.2158 15.6344 69.9345 15.6344 Q71.9814 15.6344 73.5126 16.7281 L74.6533 15.7437 Q74.6533 15.6344 74.8564 15.6344 L75.1533 15.6344 Q75.2626 15.6344 75.3642 15.7437 Q75.4658 15.8531 75.4658 15.9781 L75.4658 21.2125 Q75.4658 21.5719 75.1533 21.5719 L74.6533 21.5719 Q74.3095 21.5719 74.3095 21.2125 Q74.3095 19.1187 73.1454 17.8453 Q71.9814 16.5719 69.8876 16.5719 Q68.0908 16.5719 66.7783 17.2359 Q65.4658 17.9 65.4658 19.525 Q65.4658 20.6344 66.4111 21.3531 Q67.3564 22.0719 68.622 22.3844 L71.3408 22.8844 Q72.7001 23.1969 73.8876 23.939 Q75.0751 24.6812 75.7626 25.814 Q76.4501 26.9469 76.4501 28.3687 Q76.4501 29.8219 75.9579 30.8844 Q75.4658 31.9469 74.5751 32.65 Q73.6845 33.3531 72.4736 33.689 Q71.2626 34.025 69.9345 34.025 Q67.4345 34.025 65.6533 32.3375 L64.1845 33.9312 Q64.1845 34.025 63.9814 34.025 L63.747 34.025 Q63.3876 34.025 63.3876 33.6969 Z"
         id="path105" />
      <path
         style="stroke:none;"
         d="M78.6991 43.5719 L78.6991 41.9781 L82.5898 41.9781 L82.5898 5.1656 L78.6991 5.1656 L78.6991 3.5719 L84.1991 3.5719 L84.1991 43.5719 L78.6991 43.5719 Z"
         id="path107" />
    </g>
    <g
       style="fill:rgb(38,38,38); text-rendering:geometricPrecision; image-rendering:optimizeQuality; color-rendering:optimizeQuality; stroke-linejoin:round; stroke:rgb(38,38,38); color-interpolation:linearRGB; stroke-width:0.6667;"
       id="g135">
      <line
         y2="49"
         style="fill:none;"
         x1="177"
         x2="177"
         y1="549"
         id="line111" />
      <line
         y2="49"
         style="fill:none;"
         x1="1231"
         x2="1231"
         y1="549"
         id="line113" />
      <line
         y2="549"
         style="fill:none;"
         x1="177"
         x2="187.54"
         y1="549"
         id="line115" />
      <line
         y2="424"
         style="fill:none;"
         x1="177"
         x2="187.54"
         y1="424"
         id="line117" />
      <line
         y2="299"
         style="fill:none;"
         x1="177"
         x2="187.54"
         y1="299"
         id="line119" />
      <line
         y2="174"
         style="fill:none;"
         x1="177"
         x2="187.54"
         y1="174"
         id="line121" />
      <line
         y2="49"
         style="fill:none;"
         x1="177"
         x2="187.54"
         y1="49"
         id="line123" />
      <line
         y2="549"
         style="fill:none;"
         x1="1231"
         x2="1220.46"
         y1="549"
         id="line125" />
      <line
         y2="424"
         style="fill:none;"
         x1="1231"
         x2="1220.46"
         y1="424"
         id="line127" />
      <line
         y2="299"
         style="fill:none;"
         x1="1231"
         x2="1220.46"
         y1="299"
         id="line129" />
      <line
         y2="174"
         style="fill:none;"
         x1="1231"
         x2="1220.46"
         y1="174"
         id="line131" />
      <line
         y2="49"
         style="fill:none;"
         x1="1231"
         x2="1220.46"
         y1="49"
         id="line133" />
    </g>
    <g
       transform="translate(167.0667,549)"
       style="font-size:36.3333px; fill:rgb(38,38,38); text-rendering:geometricPrecision; image-rendering:optimizeQuality; color-rendering:optimizeQuality; font-family:'mwa_cmr10'; stroke:rgb(38,38,38); color-interpolation:linearRGB;"
       id="g139">
      <path
         style="stroke:none;"
         d="M-9.1667 9.5167 Q-13.573 9.5167 -15.1667 5.8839 Q-16.7605 2.2511 -16.7605 -2.7645 Q-16.7605 -5.8895 -16.1902 -8.6473 Q-15.6198 -11.4051 -13.9245 -13.3348 Q-12.2292 -15.2645 -9.1667 -15.2645 Q-6.7917 -15.2645 -5.2839 -14.1004 Q-3.7761 -12.9364 -2.9792 -11.1004 Q-2.1823 -9.2645 -1.8933 -7.1629 Q-1.6042 -5.0614 -1.6042 -2.7645 Q-1.6042 0.3292 -2.1745 3.0324 Q-2.7448 5.7355 -4.4167 7.6261 Q-6.0886 9.5167 -9.1667 9.5167 ZM-9.1667 8.5792 Q-7.1667 8.5792 -6.1823 6.5246 Q-5.198 4.4699 -4.9636 1.9699 Q-4.7292 -0.5301 -4.7292 -3.3426 Q-4.7292 -6.0458 -4.9636 -8.3348 Q-5.198 -10.6239 -6.1745 -12.4754 Q-7.1511 -14.327 -9.1667 -14.327 Q-11.198 -14.327 -12.1823 -12.4598 Q-13.1667 -10.5926 -13.4011 -8.3192 Q-13.6355 -6.0458 -13.6355 -3.3426 Q-13.6355 -1.3426 -13.5339 0.4386 Q-13.4323 2.2199 -13.0105 4.1105 Q-12.5886 6.0011 -11.6511 7.2902 Q-10.7136 8.5792 -9.1667 8.5792 Z"
         id="path137" />
    </g>
    <g
       transform="translate(167.0667,424)"
       style="font-size:36.3333px; fill:rgb(38,38,38); text-rendering:geometricPrecision; image-rendering:optimizeQuality; color-rendering:optimizeQuality; font-family:'mwa_cmr10'; stroke:rgb(38,38,38); color-interpolation:linearRGB;"
       id="g149">
      <path
         style="stroke:none;"
         d="M-55.5928 9.5167 Q-59.999 9.5167 -61.5928 5.8839 Q-63.1865 2.2511 -63.1865 -2.7645 Q-63.1865 -5.8895 -62.6162 -8.6473 Q-62.0459 -11.4051 -60.3506 -13.3348 Q-58.6553 -15.2645 -55.5928 -15.2645 Q-53.2178 -15.2645 -51.71 -14.1004 Q-50.2022 -12.9364 -49.4053 -11.1004 Q-48.6084 -9.2645 -48.3194 -7.1629 Q-48.0303 -5.0614 -48.0303 -2.7645 Q-48.0303 0.3292 -48.6006 3.0324 Q-49.1709 5.7355 -50.8428 7.6261 Q-52.5147 9.5167 -55.5928 9.5167 ZM-55.5928 8.5792 Q-53.5928 8.5792 -52.6084 6.5246 Q-51.624 4.4699 -51.3897 1.9699 Q-51.1553 -0.5301 -51.1553 -3.3426 Q-51.1553 -6.0458 -51.3897 -8.3348 Q-51.624 -10.6239 -52.6006 -12.4754 Q-53.5772 -14.327 -55.5928 -14.327 Q-57.624 -14.327 -58.6084 -12.4598 Q-59.5928 -10.5926 -59.8272 -8.3192 Q-60.0615 -6.0458 -60.0615 -3.3426 Q-60.0615 -1.3426 -59.96 0.4386 Q-59.8584 2.2199 -59.4365 4.1105 Q-59.0147 6.0011 -58.0772 7.2902 Q-57.1397 8.5792 -55.5928 8.5792 Z"
         id="path141" />
      <path
         style="stroke:none;"
         d="M-43.3948 6.7355 Q-43.3948 5.923 -42.8011 5.3449 Q-42.2073 4.7667 -41.4104 4.7667 Q-40.9261 4.7667 -40.4495 5.0324 Q-39.9729 5.298 -39.7073 5.7667 Q-39.4417 6.2355 -39.4417 6.7355 Q-39.4417 7.5167 -40.0276 8.1183 Q-40.6136 8.7199 -41.4104 8.7199 Q-42.2073 8.7199 -42.8011 8.1183 Q-43.3948 7.5167 -43.3948 6.7355 Z"
         id="path143" />
      <path
         style="stroke:none;"
         d="M-27.3334 9.5167 Q-31.7397 9.5167 -33.3334 5.8839 Q-34.9272 2.2511 -34.9272 -2.7645 Q-34.9272 -5.8895 -34.3569 -8.6473 Q-33.7866 -11.4051 -32.0913 -13.3348 Q-30.3959 -15.2645 -27.3334 -15.2645 Q-24.9584 -15.2645 -23.4506 -14.1004 Q-21.9428 -12.9364 -21.1459 -11.1004 Q-20.3491 -9.2645 -20.06 -7.1629 Q-19.7709 -5.0614 -19.7709 -2.7645 Q-19.7709 0.3292 -20.3413 3.0324 Q-20.9116 5.7355 -22.5834 7.6261 Q-24.2553 9.5167 -27.3334 9.5167 ZM-27.3334 8.5792 Q-25.3334 8.5792 -24.3491 6.5246 Q-23.3647 4.4699 -23.1303 1.9699 Q-22.8959 -0.5301 -22.8959 -3.3426 Q-22.8959 -6.0458 -23.1303 -8.3348 Q-23.3647 -10.6239 -24.3413 -12.4754 Q-25.3178 -14.327 -27.3334 -14.327 Q-29.3647 -14.327 -30.3491 -12.4598 Q-31.3334 -10.5926 -31.5678 -8.3192 Q-31.8022 -6.0458 -31.8022 -3.3426 Q-31.8022 -1.3426 -31.7006 0.4386 Q-31.5991 2.2199 -31.1772 4.1105 Q-30.7553 6.0011 -29.8178 7.2902 Q-28.8803 8.5792 -27.3334 8.5792 Z"
         id="path145" />
      <path
         style="stroke:none;"
         d="M-15.0417 4.6261 Q-14.6667 5.673 -13.9011 6.5402 Q-13.1355 7.4074 -12.0886 7.8839 Q-11.0417 8.3605 -9.9167 8.3605 Q-7.323 8.3605 -6.3386 6.3449 Q-5.3542 4.3292 -5.3542 1.4386 Q-5.3542 0.1886 -5.3933 -0.6629 Q-5.4323 -1.5145 -5.6355 -2.2958 Q-5.9636 -3.5614 -6.7995 -4.5145 Q-7.6355 -5.4676 -8.8542 -5.4676 Q-10.0573 -5.4676 -10.9323 -5.1004 Q-11.8073 -4.7333 -12.3464 -4.2411 Q-12.8855 -3.7489 -13.3073 -3.202 Q-13.7292 -2.6551 -13.8386 -2.6239 L-14.2448 -2.6239 Q-14.3386 -2.6239 -14.4714 -2.7333 Q-14.6042 -2.8426 -14.6042 -2.952 L-14.6042 -14.9833 Q-14.6042 -15.0614 -14.487 -15.1629 Q-14.3698 -15.2645 -14.2448 -15.2645 L-14.1355 -15.2645 Q-11.7136 -14.0926 -8.9948 -14.0926 Q-6.323 -14.0926 -3.8386 -15.2645 L-3.7292 -15.2645 Q-3.6042 -15.2645 -3.5027 -15.1708 Q-3.4011 -15.077 -3.4011 -14.9833 L-3.4011 -14.6395 Q-3.4011 -14.4676 -3.4636 -14.4676 Q-4.698 -12.827 -6.5573 -11.9129 Q-8.4167 -10.9989 -10.4011 -10.9989 Q-11.8386 -10.9989 -13.3542 -11.4051 L-13.3542 -4.6083 Q-12.1511 -5.577 -11.2136 -5.9911 Q-10.2761 -6.4051 -8.8073 -6.4051 Q-6.823 -6.4051 -5.2527 -5.2567 Q-3.6823 -4.1083 -2.8386 -2.2723 Q-1.9948 -0.4364 -1.9948 1.4699 Q-1.9948 3.6417 -3.0573 5.4855 Q-4.1198 7.3292 -5.948 8.423 Q-7.7761 9.5167 -9.9167 9.5167 Q-11.698 9.5167 -13.1823 8.6027 Q-14.6667 7.6886 -15.5183 6.1417 Q-16.3698 4.5949 -16.3698 2.8449 Q-16.3698 2.0324 -15.8464 1.5246 Q-15.323 1.0167 -14.5261 1.0167 Q-13.7292 1.0167 -13.198 1.5402 Q-12.6667 2.0636 -12.6667 2.8449 Q-12.6667 3.6261 -13.198 4.1574 Q-13.7292 4.6886 -14.5261 4.6886 Q-14.6511 4.6886 -14.8073 4.6652 Q-14.9636 4.6417 -15.0417 4.6261 Z"
         id="path147" />
    </g>
    <g
       transform="translate(167.0667,299)"
       style="font-size:36.3333px; fill:rgb(38,38,38); text-rendering:geometricPrecision; image-rendering:optimizeQuality; color-rendering:optimizeQuality; font-family:'mwa_cmr10'; stroke:rgb(38,38,38); color-interpolation:linearRGB;"
       id="g157">
      <path
         style="stroke:none;"
         d="M-37.4261 9.5167 Q-41.8323 9.5167 -43.4261 5.8839 Q-45.0198 2.2511 -45.0198 -2.7645 Q-45.0198 -5.8895 -44.4495 -8.6473 Q-43.8792 -11.4051 -42.1839 -13.3348 Q-40.4886 -15.2645 -37.4261 -15.2645 Q-35.0511 -15.2645 -33.5433 -14.1004 Q-32.0354 -12.9364 -31.2386 -11.1004 Q-30.4417 -9.2645 -30.1526 -7.1629 Q-29.8636 -5.0614 -29.8636 -2.7645 Q-29.8636 0.3292 -30.4339 3.0324 Q-31.0042 5.7355 -32.6761 7.6261 Q-34.3479 9.5167 -37.4261 9.5167 ZM-37.4261 8.5792 Q-35.4261 8.5792 -34.4417 6.5246 Q-33.4573 4.4699 -33.2229 1.9699 Q-32.9886 -0.5301 -32.9886 -3.3426 Q-32.9886 -6.0458 -33.2229 -8.3348 Q-33.4573 -10.6239 -34.4339 -12.4754 Q-35.4104 -14.327 -37.4261 -14.327 Q-39.4573 -14.327 -40.4417 -12.4598 Q-41.4261 -10.5926 -41.6604 -8.3192 Q-41.8948 -6.0458 -41.8948 -3.3426 Q-41.8948 -1.3426 -41.7933 0.4386 Q-41.6917 2.2199 -41.2698 4.1105 Q-40.8479 6.0011 -39.9104 7.2902 Q-38.9729 8.5792 -37.4261 8.5792 Z"
         id="path151" />
      <path
         style="stroke:none;"
         d="M-25.2281 6.7355 Q-25.2281 5.923 -24.6343 5.3449 Q-24.0406 4.7667 -23.2437 4.7667 Q-22.7593 4.7667 -22.2828 5.0324 Q-21.8062 5.298 -21.5406 5.7667 Q-21.275 6.2355 -21.275 6.7355 Q-21.275 7.5167 -21.8609 8.1183 Q-22.4468 8.7199 -23.2437 8.7199 Q-24.0406 8.7199 -24.6343 8.1183 Q-25.2281 7.5167 -25.2281 6.7355 Z"
         id="path153" />
      <path
         style="stroke:none;"
         d="M-14.823 8.7199 L-14.823 7.4542 Q-10.323 7.4542 -10.323 6.3136 L-10.323 -12.5926 Q-12.1823 -11.6864 -15.0417 -11.6864 L-15.0417 -12.952 Q-10.6198 -12.952 -8.3698 -15.2645 L-7.8698 -15.2645 Q-7.7448 -15.2645 -7.6277 -15.1629 Q-7.5105 -15.0614 -7.5105 -14.9364 L-7.5105 6.3136 Q-7.5105 7.4542 -3.0105 7.4542 L-3.0105 8.7199 L-14.823 8.7199 Z"
         id="path155" />
    </g>
    <g
       transform="translate(167.0667,174)"
       style="font-size:36.3333px; fill:rgb(38,38,38); text-rendering:geometricPrecision; image-rendering:optimizeQuality; color-rendering:optimizeQuality; font-family:'mwa_cmr10'; stroke:rgb(38,38,38); color-interpolation:linearRGB;"
       id="g167">
      <path
         style="stroke:none;"
         d="M-55.5928 9.5167 Q-59.999 9.5167 -61.5928 5.8839 Q-63.1865 2.2511 -63.1865 -2.7645 Q-63.1865 -5.8895 -62.6162 -8.6473 Q-62.0459 -11.4051 -60.3506 -13.3348 Q-58.6553 -15.2645 -55.5928 -15.2645 Q-53.2178 -15.2645 -51.71 -14.1004 Q-50.2022 -12.9364 -49.4053 -11.1004 Q-48.6084 -9.2645 -48.3194 -7.1629 Q-48.0303 -5.0614 -48.0303 -2.7645 Q-48.0303 0.3292 -48.6006 3.0324 Q-49.1709 5.7355 -50.8428 7.6261 Q-52.5147 9.5167 -55.5928 9.5167 ZM-55.5928 8.5792 Q-53.5928 8.5792 -52.6084 6.5246 Q-51.624 4.4699 -51.3897 1.9699 Q-51.1553 -0.5301 -51.1553 -3.3426 Q-51.1553 -6.0458 -51.3897 -8.3348 Q-51.624 -10.6239 -52.6006 -12.4754 Q-53.5772 -14.327 -55.5928 -14.327 Q-57.624 -14.327 -58.6084 -12.4598 Q-59.5928 -10.5926 -59.8272 -8.3192 Q-60.0615 -6.0458 -60.0615 -3.3426 Q-60.0615 -1.3426 -59.96 0.4386 Q-59.8584 2.2199 -59.4365 4.1105 Q-59.0147 6.0011 -58.0772 7.2902 Q-57.1397 8.5792 -55.5928 8.5792 Z"
         id="path159" />
      <path
         style="stroke:none;"
         d="M-43.3948 6.7355 Q-43.3948 5.923 -42.8011 5.3449 Q-42.2073 4.7667 -41.4104 4.7667 Q-40.9261 4.7667 -40.4495 5.0324 Q-39.9729 5.298 -39.7073 5.7667 Q-39.4417 6.2355 -39.4417 6.7355 Q-39.4417 7.5167 -40.0276 8.1183 Q-40.6136 8.7199 -41.4104 8.7199 Q-42.2073 8.7199 -42.8011 8.1183 Q-43.3948 7.5167 -43.3948 6.7355 Z"
         id="path161" />
      <path
         style="stroke:none;"
         d="M-32.9897 8.7199 L-32.9897 7.4542 Q-28.4897 7.4542 -28.4897 6.3136 L-28.4897 -12.5926 Q-30.3491 -11.6864 -33.2084 -11.6864 L-33.2084 -12.952 Q-28.7866 -12.952 -26.5366 -15.2645 L-26.0366 -15.2645 Q-25.9116 -15.2645 -25.7944 -15.1629 Q-25.6772 -15.0614 -25.6772 -14.9364 L-25.6772 6.3136 Q-25.6772 7.4542 -21.1772 7.4542 L-21.1772 8.7199 L-32.9897 8.7199 Z"
         id="path163" />
      <path
         style="stroke:none;"
         d="M-15.0417 4.6261 Q-14.6667 5.673 -13.9011 6.5402 Q-13.1355 7.4074 -12.0886 7.8839 Q-11.0417 8.3605 -9.9167 8.3605 Q-7.323 8.3605 -6.3386 6.3449 Q-5.3542 4.3292 -5.3542 1.4386 Q-5.3542 0.1886 -5.3933 -0.6629 Q-5.4323 -1.5145 -5.6355 -2.2958 Q-5.9636 -3.5614 -6.7995 -4.5145 Q-7.6355 -5.4676 -8.8542 -5.4676 Q-10.0573 -5.4676 -10.9323 -5.1004 Q-11.8073 -4.7333 -12.3464 -4.2411 Q-12.8855 -3.7489 -13.3073 -3.202 Q-13.7292 -2.6551 -13.8386 -2.6239 L-14.2448 -2.6239 Q-14.3386 -2.6239 -14.4714 -2.7333 Q-14.6042 -2.8426 -14.6042 -2.952 L-14.6042 -14.9833 Q-14.6042 -15.0614 -14.487 -15.1629 Q-14.3698 -15.2645 -14.2448 -15.2645 L-14.1355 -15.2645 Q-11.7136 -14.0926 -8.9948 -14.0926 Q-6.323 -14.0926 -3.8386 -15.2645 L-3.7292 -15.2645 Q-3.6042 -15.2645 -3.5027 -15.1708 Q-3.4011 -15.077 -3.4011 -14.9833 L-3.4011 -14.6395 Q-3.4011 -14.4676 -3.4636 -14.4676 Q-4.698 -12.827 -6.5573 -11.9129 Q-8.4167 -10.9989 -10.4011 -10.9989 Q-11.8386 -10.9989 -13.3542 -11.4051 L-13.3542 -4.6083 Q-12.1511 -5.577 -11.2136 -5.9911 Q-10.2761 -6.4051 -8.8073 -6.4051 Q-6.823 -6.4051 -5.2527 -5.2567 Q-3.6823 -4.1083 -2.8386 -2.2723 Q-1.9948 -0.4364 -1.9948 1.4699 Q-1.9948 3.6417 -3.0573 5.4855 Q-4.1198 7.3292 -5.948 8.423 Q-7.7761 9.5167 -9.9167 9.5167 Q-11.698 9.5167 -13.1823 8.6027 Q-14.6667 7.6886 -15.5183 6.1417 Q-16.3698 4.5949 -16.3698 2.8449 Q-16.3698 2.0324 -15.8464 1.5246 Q-15.323 1.0167 -14.5261 1.0167 Q-13.7292 1.0167 -13.198 1.5402 Q-12.6667 2.0636 -12.6667 2.8449 Q-12.6667 3.6261 -13.198 4.1574 Q-13.7292 4.6886 -14.5261 4.6886 Q-14.6511 4.6886 -14.8073 4.6652 Q-14.9636 4.6417 -15.0417 4.6261 Z"
         id="path165" />
    </g>
    <g
       transform="translate(167.0667,49)"
       style="font-size:36.3333px; fill:rgb(38,38,38); text-rendering:geometricPrecision; image-rendering:optimizeQuality; color-rendering:optimizeQuality; font-family:'mwa_cmr10'; stroke:rgb(38,38,38); color-interpolation:linearRGB;"
       id="g175">
      <path
         style="stroke:none;"
         d="M-37.4261 9.5167 Q-41.8323 9.5167 -43.4261 5.8839 Q-45.0198 2.2511 -45.0198 -2.7645 Q-45.0198 -5.8895 -44.4495 -8.6473 Q-43.8792 -11.4051 -42.1839 -13.3348 Q-40.4886 -15.2645 -37.4261 -15.2645 Q-35.0511 -15.2645 -33.5433 -14.1004 Q-32.0354 -12.9364 -31.2386 -11.1004 Q-30.4417 -9.2645 -30.1526 -7.1629 Q-29.8636 -5.0614 -29.8636 -2.7645 Q-29.8636 0.3292 -30.4339 3.0324 Q-31.0042 5.7355 -32.6761 7.6261 Q-34.3479 9.5167 -37.4261 9.5167 ZM-37.4261 8.5792 Q-35.4261 8.5792 -34.4417 6.5246 Q-33.4573 4.4699 -33.2229 1.9699 Q-32.9886 -0.5301 -32.9886 -3.3426 Q-32.9886 -6.0458 -33.2229 -8.3348 Q-33.4573 -10.6239 -34.4339 -12.4754 Q-35.4104 -14.327 -37.4261 -14.327 Q-39.4573 -14.327 -40.4417 -12.4598 Q-41.4261 -10.5926 -41.6604 -8.3192 Q-41.8948 -6.0458 -41.8948 -3.3426 Q-41.8948 -1.3426 -41.7933 0.4386 Q-41.6917 2.2199 -41.2698 4.1105 Q-40.8479 6.0011 -39.9104 7.2902 Q-38.9729 8.5792 -37.4261 8.5792 Z"
         id="path169" />
      <path
         style="stroke:none;"
         d="M-25.2281 6.7355 Q-25.2281 5.923 -24.6343 5.3449 Q-24.0406 4.7667 -23.2437 4.7667 Q-22.7593 4.7667 -22.2828 5.0324 Q-21.8062 5.298 -21.5406 5.7667 Q-21.275 6.2355 -21.275 6.7355 Q-21.275 7.5167 -21.8609 8.1183 Q-22.4468 8.7199 -23.2437 8.7199 Q-24.0406 8.7199 -24.6343 8.1183 Q-25.2281 7.5167 -25.2281 6.7355 Z"
         id="path171" />
      <path
         style="stroke:none;"
         d="M-16.3698 8.7199 L-16.3698 7.7511 Q-16.3698 7.6574 -16.3073 7.5636 L-10.7136 1.3761 Q-9.448 0.0011 -8.6589 -0.9286 Q-7.8698 -1.8583 -7.0964 -3.077 Q-6.323 -4.2958 -5.8698 -5.5458 Q-5.4167 -6.7958 -5.4167 -8.202 Q-5.4167 -9.6864 -5.9636 -11.0301 Q-6.5105 -12.3739 -7.5886 -13.1864 Q-8.6667 -13.9989 -10.198 -13.9989 Q-11.7605 -13.9989 -13.0105 -13.0536 Q-14.2605 -12.1083 -14.7761 -10.6239 Q-14.6355 -10.6551 -14.3855 -10.6551 Q-13.573 -10.6551 -13.0027 -10.1083 Q-12.4323 -9.5614 -12.4323 -8.702 Q-12.4323 -7.8739 -13.0027 -7.3036 Q-13.573 -6.7333 -14.3855 -6.7333 Q-15.2292 -6.7333 -15.7995 -7.3192 Q-16.3698 -7.9051 -16.3698 -8.702 Q-16.3698 -10.0614 -15.862 -11.2411 Q-15.3542 -12.4208 -14.3933 -13.3504 Q-13.4323 -14.2801 -12.2292 -14.7723 Q-11.0261 -15.2645 -9.6823 -15.2645 Q-7.6198 -15.2645 -5.8464 -14.3895 Q-4.073 -13.5145 -3.0339 -11.9286 Q-1.9948 -10.3426 -1.9948 -8.202 Q-1.9948 -6.6395 -2.6823 -5.2333 Q-3.3698 -3.827 -4.4402 -2.6786 Q-5.5105 -1.5301 -7.1823 -0.0692 Q-8.8542 1.3917 -9.3698 1.8761 L-13.448 5.798 L-9.9948 5.798 Q-7.448 5.798 -5.7292 5.7589 Q-4.0105 5.7199 -3.9167 5.6261 Q-3.4948 5.173 -3.0417 2.298 L-1.9948 2.298 L-3.0105 8.7199 L-16.3698 8.7199 Z"
         id="path173" />
    </g>
    <g
       transform="translate(98.4739,298.9998) rotate(-90)"
       style="font-size:39.9667px; fill:rgb(38,38,38); text-rendering:geometricPrecision; image-rendering:optimizeQuality; color-rendering:optimizeQuality; font-family:'mwb_cmmi10'; stroke:rgb(38,38,38); color-interpolation:linearRGB;"
       id="g191">
      <path
         style="stroke:none;"
         d="M-60.9352 -13.935 Q-62.7633 -13.935 -63.8571 -15.2631 Q-64.9508 -16.5913 -65.3649 -18.4663 Q-65.7789 -20.3413 -65.7789 -22.185 L-65.7789 -22.2163 Q-65.7789 -24.2163 -65.4039 -26.3647 Q-65.0289 -28.5131 -64.3024 -30.6538 Q-63.5758 -32.7944 -62.7321 -34.4663 Q-62.1539 -35.6381 -61.2243 -37.0835 Q-60.2946 -38.5288 -59.1539 -39.7866 Q-58.0133 -41.0444 -56.693 -41.8178 Q-55.3727 -42.5913 -54.0289 -42.5913 L-53.9821 -42.5913 Q-52.5446 -42.5913 -51.5758 -41.7944 Q-50.6071 -40.9975 -50.068 -39.7475 Q-49.5289 -38.4975 -49.318 -37.0678 Q-49.1071 -35.6381 -49.1071 -34.3569 Q-49.1071 -31.3256 -49.9274 -28.1694 Q-50.7477 -25.0131 -52.1852 -22.06 Q-52.7321 -20.9506 -53.7008 -19.4506 Q-54.6696 -17.9506 -55.7555 -16.7553 Q-56.8414 -15.56 -58.1852 -14.7475 Q-59.5289 -13.935 -60.9039 -13.935 L-60.9352 -13.935 ZM-60.8571 -14.9975 Q-59.5289 -14.9975 -58.3102 -16.4116 Q-57.0914 -17.8256 -56.1774 -19.8491 Q-55.2633 -21.8725 -54.568 -23.9897 Q-53.8727 -26.1069 -53.5446 -27.5913 L-61.7008 -27.5913 Q-62.3258 -25.0756 -62.6774 -23.2475 Q-63.0289 -21.4194 -63.0289 -19.6694 Q-63.0289 -14.9975 -60.8571 -14.9975 ZM-61.3883 -28.9975 L-53.1852 -28.9975 Q-52.7633 -30.7631 -52.5055 -31.9428 Q-52.2477 -33.1225 -52.0758 -34.4272 Q-51.9039 -35.7319 -51.9039 -36.8725 Q-51.9039 -41.56 -54.0289 -41.56 Q-56.5602 -41.56 -58.4118 -37.4663 Q-60.2633 -33.3725 -61.3883 -28.9975 Z"
         id="path177" />
      <path
         style="stroke:none;"
         d="M-47.8449 -13.0182 L-47.8449 -14.0026 L-39.1887 -26.9088 Q-39.0949 -27.0495 -38.9074 -27.0495 L-38.5012 -27.0495 Q-38.1731 -27.0495 -38.1731 -26.7213 L-38.1731 -14.0026 L-35.4387 -14.0026 L-35.4387 -13.0182 L-38.1731 -13.0182 L-38.1731 -10.2682 Q-38.1731 -9.6901 -37.3528 -9.5338 Q-36.5324 -9.3776 -35.4543 -9.3776 L-35.4543 -8.3932 L-43.1731 -8.3932 L-43.1731 -9.3776 Q-42.0949 -9.3776 -41.2746 -9.5338 Q-40.4543 -9.6901 -40.4543 -10.2682 L-40.4543 -13.0182 L-47.8449 -13.0182 ZM-46.9231 -14.0026 L-40.2824 -14.0026 L-40.2824 -23.9088 L-46.9231 -14.0026 Z"
         id="path179" />
      <path
         style="stroke:none;"
         d="M-7.9218 -4.3881 L-7.9218 -44.3881 L-2.4531 -44.3881 L-2.4531 -42.7944 L-6.3281 -42.7944 L-6.3281 -5.9819 L-2.4531 -5.9819 L-2.4531 -4.3881 L-7.9218 -4.3881 Z"
         id="path181" />
      <path
         style="stroke:none;"
         d="M-0.5231 -14.3881 L-0.5231 -15.7944 Q0.8519 -15.7944 1.7269 -16.0131 Q2.6019 -16.2319 2.6019 -17.06 L2.6019 -27.9819 Q2.6019 -29.06 2.2816 -29.5366 Q1.9613 -30.0131 1.3598 -30.1225 Q0.7582 -30.2319 -0.5231 -30.2319 L-0.5231 -31.6381 L5.2113 -32.06 L5.2113 -28.1538 Q5.8519 -29.9038 7.0394 -30.9819 Q8.2269 -32.06 9.9301 -32.06 Q11.1176 -32.06 12.0551 -31.3569 Q12.9926 -30.6538 12.9926 -29.5131 Q12.9926 -28.7788 12.4769 -28.2475 Q11.9613 -27.7163 11.1957 -27.7163 Q10.4613 -27.7163 9.9301 -28.2397 Q9.3988 -28.7631 9.3988 -29.5131 Q9.3988 -30.5756 10.1644 -31.0288 L9.9301 -31.0288 Q8.3051 -31.0288 7.2816 -29.8569 Q6.2582 -28.685 5.8285 -26.9506 Q5.3988 -25.2163 5.3988 -23.6225 L5.3988 -17.06 Q5.3988 -15.7944 9.2894 -15.7944 L9.2894 -14.3881 L-0.5231 -14.3881 Z"
         id="path183" />
      <path
         style="stroke:none;"
         d="M15.7087 -18.31 Q15.7087 -20.7006 17.5837 -22.1928 Q19.4587 -23.685 22.0837 -24.3022 Q24.7087 -24.9194 27.0681 -24.9194 L27.0681 -26.56 Q27.0681 -27.7163 26.5603 -28.7944 Q26.0525 -29.8725 25.0993 -30.5678 Q24.1462 -31.2631 22.99 -31.2631 Q20.3337 -31.2631 18.9431 -30.0756 Q19.7087 -30.0756 20.2087 -29.4975 Q20.7087 -28.9194 20.7087 -28.1538 Q20.7087 -27.3569 20.1384 -26.7944 Q19.5681 -26.2319 18.7868 -26.2319 Q17.99 -26.2319 17.4196 -26.7944 Q16.8493 -27.3569 16.8493 -28.1538 Q16.8493 -30.2631 18.7634 -31.2944 Q20.6775 -32.3256 22.99 -32.3256 Q24.615 -32.3256 26.2556 -31.6303 Q27.8962 -30.935 28.9353 -29.646 Q29.9743 -28.3569 29.9743 -26.6381 L29.9743 -17.6381 Q29.9743 -16.8569 30.3103 -16.2006 Q30.6462 -15.5444 31.3493 -15.5444 Q32.0056 -15.5444 32.3337 -16.2085 Q32.6618 -16.8725 32.6618 -17.6381 L32.6618 -20.185 L33.8337 -20.185 L33.8337 -17.6381 Q33.8337 -16.7319 33.365 -15.9194 Q32.8962 -15.1069 32.0993 -14.6303 Q31.3025 -14.1538 30.3962 -14.1538 Q29.2243 -14.1538 28.3728 -15.06 Q27.5212 -15.9663 27.4275 -17.2163 Q26.6775 -15.7163 25.2321 -14.8256 Q23.7868 -13.935 22.1462 -13.935 Q20.6306 -13.935 19.154 -14.3881 Q17.6775 -14.8413 16.6931 -15.81 Q15.7087 -16.7788 15.7087 -18.31 ZM18.9431 -18.31 Q18.9431 -16.9038 19.9821 -15.9506 Q21.0212 -14.9975 22.4275 -14.9975 Q23.7087 -14.9975 24.7634 -15.6381 Q25.8181 -16.2788 26.4431 -17.396 Q27.0681 -18.5131 27.0681 -19.7475 L27.0681 -23.9038 Q25.2556 -23.9038 23.3493 -23.31 Q21.4431 -22.7163 20.1931 -21.4428 Q18.9431 -20.1694 18.9431 -18.31 Z"
         id="path185" />
      <path
         style="stroke:none;"
         d="M43.8483 -13.935 Q41.489 -13.935 39.5358 -15.2163 Q37.5827 -16.4975 36.4968 -18.5913 Q35.4108 -20.685 35.4108 -23.0288 Q35.4108 -25.4506 36.5905 -27.5288 Q37.7702 -29.6069 39.8015 -30.8335 Q41.8327 -32.06 44.2858 -32.06 Q45.739 -32.06 47.0515 -31.4506 Q48.364 -30.8413 49.3171 -29.7475 L49.3171 -38.06 Q49.3171 -39.1381 48.9968 -39.6147 Q48.6765 -40.0913 48.0827 -40.2006 Q47.489 -40.31 46.2077 -40.31 L46.2077 -41.7163 L52.1296 -42.1381 L52.1296 -18.0288 Q52.1296 -16.9663 52.4499 -16.4897 Q52.7702 -16.0131 53.3718 -15.9038 Q53.9733 -15.7944 55.239 -15.7944 L55.239 -14.3881 L49.2077 -13.935 L49.2077 -16.4663 Q48.1608 -15.2631 46.739 -14.5991 Q45.3171 -13.935 43.8483 -13.935 ZM39.7702 -17.8725 Q40.4577 -16.56 41.5983 -15.7788 Q42.739 -14.9975 44.0827 -14.9975 Q45.739 -14.9975 47.1296 -15.9506 Q48.5202 -16.9038 49.2077 -18.435 L49.2077 -28.0288 Q48.739 -28.9038 48.0202 -29.5991 Q47.3015 -30.2944 46.4187 -30.6616 Q45.5358 -31.0288 44.5358 -31.0288 Q42.4421 -31.0288 41.1765 -29.8491 Q39.9108 -28.6694 39.403 -26.8335 Q38.8952 -24.9975 38.8952 -22.9819 Q38.8952 -21.3881 39.0593 -20.1928 Q39.2233 -18.9975 39.7702 -17.8725 Z"
         id="path187" />
      <path
         style="stroke:none;"
         d="M57.1615 -4.3881 L57.1615 -5.9819 L61.0521 -5.9819 L61.0521 -42.7944 L57.1615 -42.7944 L57.1615 -44.3881 L62.6615 -44.3881 L62.6615 -4.3881 L57.1615 -4.3881 Z"
         id="path189" />
    </g>
    <g
       style="stroke-linecap:butt; text-rendering:geometricPrecision; color-rendering:optimizeQuality; image-rendering:optimizeQuality; stroke-linejoin:round; color-interpolation:linearRGB; stroke-width:0.6667;"
       id="g195">
      <path
         d="M177 549 L181.216 536.605 L185.432 526.7775 L189.648 507.545 L193.864 475.8025 L198.08 482.94 L202.296 482.9425 L206.512 471.9575 L210.728 475.57 L214.944 467.12 L219.16 438.6625 L223.376 420.6875 L227.592 408.6625 L231.808 397.1125 L236.024 360.1375 L240.24 357.2125 L244.456 342.9625 L248.672 321.4125 L252.888 324.9125 L257.104 319.1875 L261.32 306.4125 L265.536 300.8875 L269.752 293.7125 L273.968 269.1875 L278.184 261.4625 L282.4 254.4625 L286.616 252.2375 L290.832 248.5375 L295.048 237.7875 L299.264 231.7875 L303.48 214.5875 L307.696 188.2375 L311.912 189.1625 L316.128 192.0375 L320.344 190.1875 L324.56 186.8375 L328.776 190.7625 L332.992 182.9875 L337.208 180.9875 L341.424 175.5625 L345.64 161.9375 L349.856 154.6375 L354.072 159.7875 L358.288 164.9125 L362.504 171.7125 L366.72 165.2875 L370.936 169.6375 L375.152 174.2375 L379.368 162.6375 L383.584 159.1125 L387.8 173.3625 L392.016 174.1125 L396.232 172.5375 L400.448 177.5875 L404.664 167.5125 L408.88 170.8875 L413.096 175.3125 L417.312 163.3125 L421.528 168.0375 L425.744 179.0125 L429.96 181.4625 L434.176 182.7625 L438.392 197.3125 L442.608 197.2875 L446.824 198.8375 L451.04 196.7125 L455.256 182.3625 L459.472 182.3875 L463.688 189.2625 L467.904 195.0875 L472.12 200.8375 L476.336 195.3875 L480.552 194.6375 L484.768 197.9875 L488.984 197.1625 L493.2 200.4875 L497.416 212.1125 L501.632 209.7375 L505.848 209.8125 L510.064 209.3625 L514.28 203.9625 L518.496 206.7625 L522.712 190.0125 L526.928 187.0375 L531.144 197.1875 L535.36 198.9125 L539.576 193.7625 L543.792 199.9875 L548.008 198.8875 L552.224 194.2125 L556.44 192.6125 L560.656 182.1125 L564.872 185.0125 L569.088 191.0875 L573.304 186.8375 L577.52 186.3375 L581.736 186.8625 L585.952 190.3375 L590.168 195.1125 L594.384 185.2375 L598.6 194.8375 L602.816 197.5375 L607.032 195.7375 L611.248 200.0125 L615.464 193.7875 L619.68 194.5125 L623.896 196.2125 L628.112 183.3625 L632.328 189.7875 L636.544 201.3625 L640.76 205.1125 L644.976 203.9375 L649.192 210.0875 L653.408 213.5375 L657.624 209.7375 L661.84 207.3125 L666.056 201.0625 L670.272 190.5375 L674.488 196.4125 L678.704 198.3625 L682.92 198.2375 L687.136 197.4625 L691.352 200.1125 L695.568 204.7625 L699.784 196.2875 L704 186.5625 L708.216 194.8125 L712.432 195.0875 L716.648 197.6125 L720.864 200.4625 L725.08 193.5125 L729.296 196.5375 L733.512 188.4625 L737.728 187.5375 L741.944 200.4375 L746.16 208.6625 L750.376 210.5875 L754.592 213.4625 L758.808 205.1625 L763.024 202.5125 L767.24 202.1625 L771.456 191.7875 L775.672 187.5375 L779.888 190.3375 L784.104 195.2625 L788.32 194.5875 L792.536 174.9125 L796.752 174.6125 L800.968 180.5125 L805.184 177.3375 L809.4 183.3875 L813.616 197.0375 L817.832 203.8875 L822.048 209.2375 L826.264 204.3125 L830.48 191.1125 L834.696 185.4875 L838.912 182.4125 L843.128 180.6625 L847.344 183.8625 L851.56 195.2125 L855.776 201.9875 L859.992 206.2625 L864.208 196.7625 L868.424 188.5125 L872.64 188.6625 L876.856 186.3375 L881.072 194.2125 L885.288 196.9875 L889.504 206.0375 L893.72 206.5625 L897.936 196.6625 L902.152 198.8625 L906.368 192.9625 L910.584 181.8625 L914.8 189.7875 L919.016 193.2625 L923.232 198.0125 L927.448 202.5625 L931.664 201.9125 L935.88 196.4875 L940.0959 188.1375 L944.312 185.4375 L948.528 190.8875 L952.744 191.4125 L956.96 195.2375 L961.176 196.1625 L965.392 195.6375 L969.608 197.7125 L973.824 187.1625 L978.04 190.2125 L982.256 198.1125 L986.472 198.4625 L990.688 203.9375 L994.9041 201.2875 L999.12 196.2125 L1003.336 200.7375 L1007.552 196.4375 L1011.768 192.2375 L1015.984 204.1375 L1020.2 211.2375 L1024.416 210.2375 L1028.632 209.0875 L1032.848 211.4875 L1037.064 213.4125 L1041.28 209.8125 L1045.496 208.2625 L1049.7119 200.2625 L1053.928 190.5625 L1058.1439 194.1625 L1062.36 196.0375 L1066.5759 191.1375 L1070.792 189.5875 L1075.0081 193.0875 L1079.224 185.7375 L1083.4401 202.2875 L1087.656 210.8625 L1091.8721 209.4125 L1096.088 212.4375 L1100.3041 213.8125 L1104.52 196.9625 L1108.736 201.5875 L1112.952 203.9625 L1117.168 197.3625 L1121.384 191.7125 L1125.6 203.2125 L1129.816 206.3875 L1134.032 204.2125 L1138.248 214.5125 L1142.464 212.2375 L1146.6799 203.8875 L1150.896 202.2875 L1155.1119 191.8875 L1159.328 195.3375 L1163.5439 198.2875 L1167.76 206.8375 L1171.976 210.3625 L1176.1919 195.6875 L1180.4081 184.4375 L1184.624 185.5375 L1188.8401 176.0875 L1193.056 176.5375 L1197.272 195.2875 L1201.488 197.8875 L1205.704 199.8125 L1209.92 199.4375 L1214.136 189.3375 L1218.3521 187.7875 L1222.568 189.6875 L1226.7841 190.7625 L1231 190.7375 L1231.1256 190.8984"
         style="fill:none; fill-rule:evenodd;"
         id="path193" />
    </g>
    <g
       style="stroke-linecap:butt; fill:red; text-rendering:geometricPrecision; image-rendering:optimizeQuality; color-rendering:optimizeQuality; stroke-linejoin:bevel; stroke-dasharray:10,6; stroke:red; color-interpolation:linearRGB; stroke-width:0.6667; stroke-miterlimit:1;"
       id="g199">
      <path
         d="M177 549 L181.216 541.913 L185.432 533.1843 L189.648 523.0389 L193.864 511.6889 L198.08 499.3328 L202.296 486.1562 L206.512 472.3316 L210.728 458.0184 L214.944 443.3633 L219.16 428.5005 L223.376 413.5522 L227.592 398.6288 L231.808 383.8293 L236.024 369.242 L240.24 354.9447 L244.456 341.0057 L248.672 327.4836 L252.888 314.4284 L257.104 301.8821 L261.32 289.8785 L265.536 278.4449 L269.752 267.6015 L273.968 257.3625 L278.184 247.7369 L282.4 238.7283 L286.616 230.3357 L290.832 222.5543 L295.048 215.3753 L299.264 208.7869 L303.48 202.7744 L307.696 197.3206 L311.912 192.4064 L316.128 188.0108 L320.344 184.1115 L324.56 180.6848 L328.776 177.7066 L332.992 175.1518 L337.208 172.9953 L341.424 171.2114 L345.64 169.7748 L349.856 168.6602 L354.072 167.8427 L358.288 167.298 L362.504 167.0023 L366.72 166.9324 L370.936 167.0661 L375.152 167.382 L379.368 167.8595 L383.584 168.479 L387.8 169.2221 L392.016 170.0712 L396.232 171.0098 L400.448 172.0226 L404.664 173.0952 L408.88 174.2142 L413.096 175.3673 L417.312 176.5432 L421.528 177.7317 L425.744 178.9234 L429.96 180.1098 L434.176 181.2834 L438.392 182.4375 L442.608 183.5663 L446.824 184.6645 L451.04 185.7278 L455.256 186.7525 L459.472 187.7354 L463.688 188.6742 L467.904 189.5668 L472.12 190.4119 L476.336 191.2085 L480.552 191.956 L484.768 192.6543 L488.984 193.3036 L493.2 193.9045 L497.416 194.4577 L501.632 194.9643 L505.848 195.4255 L510.064 195.8428 L514.28 196.2177 L518.496 196.552 L522.712 196.8475 L526.928 197.106 L531.144 197.3296 L535.36 197.5203 L539.576 197.68 L543.792 197.8109 L548.008 197.9148 L552.224 197.9939 L556.44 198.0502 L560.656 198.0854 L564.872 198.1015 L569.088 198.1004 L573.304 198.0837 L577.52 198.0532 L581.736 198.0104 L585.952 197.9569 L590.168 197.8941 L594.384 197.8234 L598.6 197.7461 L602.816 197.6633 L607.032 197.5762 L611.248 197.4858 L615.464 197.3931 L619.68 197.2989 L623.896 197.204 L628.112 197.109 L632.328 197.0148 L636.544 196.9218 L640.76 196.8306 L644.976 196.7416 L649.192 196.6551 L653.408 196.5716 L657.624 196.4912 L661.84 196.4142 L666.056 196.3409 L670.272 196.2713 L674.488 196.2054 L678.704 196.1435 L682.92 196.0855 L687.136 196.0314 L691.352 195.9812 L695.568 195.9348 L699.784 195.8922 L704 195.8533 L708.216 195.818 L712.432 195.7861 L716.648 195.7575 L720.864 195.7321 L725.08 195.7098 L729.296 195.6903 L733.512 195.6736 L737.728 195.6594 L741.944 195.6476 L746.16 195.638 L750.376 195.6306 L754.592 195.625 L758.808 195.6212 L763.024 195.619 L767.24 195.6183 L771.456 195.6189 L775.672 195.6207 L779.888 195.6236 L784.104 195.6273 L788.32 195.6319 L792.536 195.6372 L796.752 195.643 L800.968 195.6494 L805.184 195.6561 L809.4 195.6632 L813.616 195.6705 L817.832 195.6779 L822.048 195.6855 L826.264 195.693 L830.48 195.7006 L834.696 195.708 L838.912 195.7154 L843.128 195.7226 L847.344 195.7296 L851.56 195.7364 L855.776 195.743 L859.992 195.7493 L864.208 195.7553 L868.424 195.761 L872.64 195.7665 L876.856 195.7716 L881.072 195.7764 L885.288 195.7809 L889.504 195.7851 L893.72 195.789 L897.936 195.7926 L902.152 195.7958 L906.368 195.7988 L910.584 195.8015 L914.8 195.804 L919.016 195.8061 L923.232 195.8081 L927.448 195.8097 L931.664 195.8112 L935.88 195.8125 L940.0959 195.8135 L944.312 195.8143 L948.528 195.8151 L952.744 195.8156 L956.96 195.816 L961.176 195.8162 L965.392 195.8164 L969.608 195.8164 L973.824 195.8163 L978.04 195.8161 L982.256 195.8158 L986.472 195.8155 L990.688 195.8151 L994.9041 195.8147 L999.12 195.8142 L1003.336 195.8137 L1007.552 195.8131 L1011.768 195.8126 L1015.984 195.812 L1020.2 195.8114 L1024.416 195.8108 L1028.632 195.8102 L1032.848 195.8096 L1037.064 195.809 L1041.28 195.8084 L1045.496 195.8078 L1049.7119 195.8073 L1053.928 195.8067 L1058.1439 195.8062 L1062.36 195.8058 L1066.5759 195.8053 L1070.792 195.8048 L1075.0081 195.8044 L1079.224 195.804 L1083.4401 195.8036 L1087.656 195.8033 L1091.8721 195.8029 L1096.088 195.8027 L1100.3041 195.8024 L1104.52 195.8021 L1108.736 195.8019 L1112.952 195.8017 L1117.168 195.8015 L1121.384 195.8013 L1125.6 195.8012 L1129.816 195.8011 L1134.032 195.8009 L1138.248 195.8009 L1142.464 195.8008 L1146.6799 195.8007 L1150.896 195.8007 L1155.1119 195.8006 L1159.328 195.8006 L1163.5439 195.8006 L1167.76 195.8006 L1171.976 195.8006 L1176.1919 195.8006 L1180.4081 195.8006 L1184.624 195.8006 L1188.8401 195.8007 L1193.056 195.8007 L1197.272 195.8008 L1201.488 195.8008 L1205.704 195.8008 L1209.92 195.8009 L1214.136 195.8009 L1218.3521 195.8009 L1222.568 195.801 L1226.7841 195.8011 L1231 195.8011 L1231.1256 195.8011"
         style="fill:none; fill-rule:evenodd;"
         id="path197" />
    </g>
    <g
       style="fill:white; text-rendering:optimizeSpeed; color-rendering:optimizeSpeed; image-rendering:optimizeSpeed; shape-rendering:crispEdges; stroke:white; color-interpolation:sRGB;"
       id="g203">
      <path
         style="stroke:none;"
         d="M1220 122 L1220 60 L921 60 L921 122 Z"
         id="path201" />
    </g>
    <g
       transform="translate(968.0209,76.3736)"
       style="font-size:24px; text-rendering:geometricPrecision; color-rendering:optimizeQuality; image-rendering:optimizeQuality; font-family:'mwa_cmr10'; color-interpolation:linearRGB;"
       id="g207">
      <path
         style="stroke:none;"
         d="M0.7969 5.7599 L0.7969 4.9162 Q3.2656 4.9162 3.2656 4.1505 L3.2656 -9.037 Q3.2656 -9.787 0.7969 -9.787 L0.7969 -10.6307 L8.3281 -10.6307 Q9.6875 -10.6307 11.1641 -10.1463 Q12.6406 -9.662 13.6406 -8.6698 Q14.6406 -7.6776 14.6406 -6.287 Q14.6406 -5.287 14.0391 -4.4901 Q13.4375 -3.6932 12.4922 -3.162 Q11.5469 -2.6307 10.5625 -2.3963 Q11.6406 -2.0213 12.4453 -1.201 Q13.25 -0.3807 13.4219 0.6662 L13.7656 2.8068 Q14 4.2443 14.2578 4.9552 Q14.5156 5.6662 15.3906 5.6662 Q16.1406 5.6662 16.5078 4.9708 Q16.875 4.2755 16.875 3.4474 Q16.875 3.3693 16.9531 3.3068 Q17.0312 3.2443 17.1094 3.2443 L17.3281 3.2443 Q17.5625 3.2443 17.5625 3.5568 Q17.5625 4.213 17.3047 4.838 Q17.0469 5.463 16.5625 5.8771 Q16.0781 6.2912 15.4062 6.2912 Q13.6719 6.2912 12.4297 5.424 Q11.1875 4.5568 11.1875 2.9005 L11.1875 0.7599 Q11.1875 -0.4276 10.3516 -1.287 Q9.5156 -2.1463 8.3125 -2.1463 L5.4219 -2.1463 L5.4219 4.1505 Q5.4219 4.9162 7.9062 4.9162 L7.9062 5.7599 L0.7969 5.7599 ZM5.4219 -2.7557 L8 -2.7557 Q9.9844 -2.7557 11.0312 -3.5604 Q12.0781 -4.3651 12.0781 -6.287 Q12.0781 -8.1932 11.0469 -8.9901 Q10.0156 -9.787 8 -9.787 L6.6406 -9.787 Q6.2188 -9.787 5.9766 -9.7557 Q5.7344 -9.7245 5.5781 -9.5526 Q5.4219 -9.3807 5.4219 -9.037 L5.4219 -2.7557 Z"
         id="path205" />
    </g>
    <g
       transform="translate(968.0209,76.3736)"
       style="font-size:24px; text-rendering:geometricPrecision; color-rendering:optimizeQuality; image-rendering:optimizeQuality; font-family:'mwa_cmr10'; color-interpolation:linearRGB;"
       id="g249">
      <path
         style="stroke:none;"
         d="M23.6511 6.0255 Q22.1823 6.0255 20.9557 5.2599 Q19.7292 4.4943 19.0339 3.213 Q18.3386 1.9318 18.3386 0.4943 Q18.3386 -0.912 18.9792 -2.1776 Q19.6198 -3.4432 20.7604 -4.2245 Q21.9011 -5.0057 23.3073 -5.0057 Q24.4011 -5.0057 25.2214 -4.6307 Q26.0417 -4.2557 26.5651 -3.5995 Q27.0886 -2.9432 27.362 -2.0526 Q27.6354 -1.162 27.6354 -0.0995 Q27.6354 0.213 27.3854 0.213 L20.4323 0.213 L20.4323 0.4787 Q20.4323 2.463 21.237 3.8927 Q22.0417 5.3224 23.8542 5.3224 Q24.5886 5.3224 25.2214 4.9943 Q25.8542 4.6662 26.3151 4.0802 Q26.7761 3.4943 26.9323 2.8224 Q26.9636 2.7443 27.0261 2.6818 Q27.0886 2.6193 27.1667 2.6193 L27.3854 2.6193 Q27.6354 2.6193 27.6354 2.9162 Q27.2917 4.2755 26.1667 5.1505 Q25.0417 6.0255 23.6511 6.0255 ZM20.4636 -0.3807 L25.9323 -0.3807 Q25.9323 -1.287 25.6823 -2.2088 Q25.4323 -3.1307 24.8464 -3.7479 Q24.2604 -4.3651 23.3073 -4.3651 Q21.9479 -4.3651 21.2057 -3.0917 Q20.4636 -1.8182 20.4636 -0.3807 Z"
         id="path209" />
      <path
         style="stroke:none;"
         d="M29.1302 5.838 L29.1302 1.9162 Q29.1302 1.7287 29.349 1.7287 L29.6302 1.7287 Q29.7708 1.7287 29.8177 1.9162 Q30.4896 5.4005 33.0521 5.4005 Q34.1927 5.4005 34.9583 4.8849 Q35.724 4.3693 35.724 3.2912 Q35.724 2.5099 35.1302 1.963 Q34.5365 1.4162 33.7083 1.2287 L32.1146 0.9005 Q31.3021 0.7287 30.638 0.3693 Q29.974 0.0099 29.5521 -0.5995 Q29.1302 -1.2088 29.1302 -2.0057 Q29.1302 -3.0526 29.6849 -3.7245 Q30.2396 -4.3963 31.1302 -4.701 Q32.0208 -5.0057 33.0521 -5.0057 Q34.2865 -5.0057 35.2083 -4.3495 L35.8958 -4.9432 Q35.8958 -5.0057 36.0052 -5.0057 L36.1927 -5.0057 Q36.2552 -5.0057 36.3177 -4.9354 Q36.3802 -4.8651 36.3802 -4.8026 L36.3802 -1.662 Q36.3802 -1.4432 36.1927 -1.4432 L35.8958 -1.4432 Q35.6771 -1.4432 35.6771 -1.662 Q35.6771 -2.912 34.9818 -3.6776 Q34.2865 -4.4432 33.0365 -4.4432 Q31.9583 -4.4432 31.1693 -4.0448 Q30.3802 -3.6463 30.3802 -2.662 Q30.3802 -2.0057 30.9427 -1.576 Q31.5052 -1.1463 32.2708 -0.9588 L33.8958 -0.6463 Q34.724 -0.4588 35.4349 -0.0135 Q36.1458 0.4318 36.5599 1.1115 Q36.974 1.7912 36.974 2.6349 Q36.974 3.5099 36.6771 4.1505 Q36.3802 4.7912 35.8411 5.213 Q35.3021 5.6349 34.5755 5.8302 Q33.849 6.0255 33.0521 6.0255 Q31.5521 6.0255 30.4896 5.0255 L29.6146 5.9787 Q29.6146 6.0255 29.4896 6.0255 L29.349 6.0255 Q29.1302 6.0255 29.1302 5.838 Z"
         id="path211" />
      <path
         style="stroke:none;"
         d="M40.3938 2.9005 L40.3938 -2.3963 Q40.3938 -3.037 40.1984 -3.326 Q40.0031 -3.6151 39.6438 -3.6776 Q39.2844 -3.7401 38.5188 -3.7401 L38.5188 -4.5838 L42.1438 -4.8495 L42.1438 2.9005 Q42.1438 3.838 42.2844 4.3615 Q42.425 4.8849 42.8625 5.1427 Q43.3 5.4005 44.2531 5.4005 Q45.55 5.4005 46.3078 4.3224 Q47.0656 3.2443 47.0656 1.8693 L47.0656 -2.3963 Q47.0656 -3.037 46.8703 -3.326 Q46.675 -3.6151 46.3156 -3.6776 Q45.9563 -3.7401 45.1906 -3.7401 L45.1906 -4.5838 L48.8156 -4.8495 L48.8156 3.5724 Q48.8156 4.213 49.0109 4.5021 Q49.2063 4.7912 49.5656 4.8537 Q49.925 4.9162 50.6906 4.9162 L50.6906 5.7599 L47.1438 6.0255 L47.1438 3.9943 Q46.6906 4.9005 45.8938 5.463 Q45.0969 6.0255 44.1438 6.0255 Q42.425 6.0255 41.4094 5.2912 Q40.3938 4.5568 40.3938 2.9005 Z"
         id="path213" />
      <path
         style="stroke:none;"
         d="M51.8678 5.7599 L51.8678 4.9162 Q52.6959 4.9162 53.2193 4.7833 Q53.7428 4.6505 53.7428 4.1505 L53.7428 -8.4432 Q53.7428 -9.0838 53.5553 -9.3729 Q53.3678 -9.662 53.0006 -9.7245 Q52.6334 -9.787 51.8678 -9.787 L51.8678 -10.6307 L55.4303 -10.8963 L55.4303 4.1505 Q55.4303 4.6505 55.9615 4.7833 Q56.4928 4.9162 57.3053 4.9162 L57.3053 5.7599 L51.8678 5.7599 Z"
         id="path215" />
      <path
         style="stroke:none;"
         d="M60.2532 2.8693 L60.2532 -3.7401 L58.2532 -3.7401 L58.2532 -4.3651 Q59.8313 -4.3651 60.5657 -5.8338 Q61.3001 -7.3026 61.3001 -9.0057 L62.0032 -9.0057 L62.0032 -4.5838 L65.3782 -4.5838 L65.3782 -3.7401 L62.0032 -3.7401 L62.0032 2.8224 Q62.0032 3.8224 62.3313 4.5724 Q62.6594 5.3224 63.5344 5.3224 Q64.3469 5.3224 64.7141 4.5333 Q65.0813 3.7443 65.0813 2.8224 L65.0813 1.4162 L65.7688 1.4162 L65.7688 2.8693 Q65.7688 3.6193 65.4954 4.3537 Q65.2219 5.088 64.6829 5.5568 Q64.1438 6.0255 63.3626 6.0255 Q61.9251 6.0255 61.0891 5.1662 Q60.2532 4.3068 60.2532 2.8693 Z"
         id="path217" />
      <path
         style="stroke:none;"
         d="M68.1022 3.4005 Q68.1022 1.9787 69.2272 1.0802 Q70.3522 0.1818 71.9225 -0.1854 Q73.4928 -0.5526 74.9147 -0.5526 L74.9147 -1.537 Q74.9147 -2.2401 74.61 -2.8885 Q74.3053 -3.537 73.735 -3.951 Q73.1647 -4.3651 72.4615 -4.3651 Q70.8678 -4.3651 70.0397 -3.6463 Q70.4928 -3.6463 70.7975 -3.3026 Q71.1022 -2.9588 71.1022 -2.5057 Q71.1022 -2.0213 70.7584 -1.6854 Q70.4147 -1.3495 69.9459 -1.3495 Q69.4615 -1.3495 69.1256 -1.6854 Q68.7897 -2.0213 68.7897 -2.5057 Q68.7897 -3.7713 69.9381 -4.3885 Q71.0865 -5.0057 72.4615 -5.0057 Q73.4459 -5.0057 74.4303 -4.5838 Q75.4147 -4.162 76.0397 -3.3885 Q76.6647 -2.6151 76.6647 -1.5838 L76.6647 3.8068 Q76.6647 4.2755 76.86 4.674 Q77.0553 5.0724 77.4772 5.0724 Q77.8834 5.0724 78.0787 4.674 Q78.274 4.2755 78.274 3.8068 L78.274 2.2755 L78.9772 2.2755 L78.9772 3.8068 Q78.9772 4.3537 78.6959 4.838 Q78.4147 5.3224 77.9381 5.6115 Q77.4615 5.9005 76.9147 5.9005 Q76.2115 5.9005 75.6959 5.3537 Q75.1803 4.8068 75.1334 4.0568 Q74.6803 4.963 73.8131 5.4943 Q72.9459 6.0255 71.9615 6.0255 Q71.0553 6.0255 70.1647 5.7599 Q69.274 5.4943 68.6881 4.9083 Q68.1022 4.3224 68.1022 3.4005 ZM70.0397 3.4005 Q70.0397 4.2443 70.6647 4.8224 Q71.2897 5.4005 72.1334 5.4005 Q72.899 5.4005 73.5319 5.0099 Q74.1647 4.6193 74.5397 3.9552 Q74.9147 3.2912 74.9147 2.5412 L74.9147 0.0568 Q73.8209 0.0568 72.6803 0.4083 Q71.5397 0.7599 70.7897 1.5255 Q70.0397 2.2912 70.0397 3.4005 Z"
         id="path219" />
      <path
         style="stroke:none;"
         d="M84.9928 6.0255 Q83.571 6.0255 82.3991 5.2599 Q81.2272 4.4943 80.5788 3.2365 Q79.9303 1.9787 79.9303 0.5724 Q79.9303 -0.8807 80.6413 -2.1229 Q81.3522 -3.3651 82.571 -4.1073 Q83.7897 -4.8495 85.2585 -4.8495 Q86.1335 -4.8495 86.9147 -4.4823 Q87.696 -4.1151 88.2741 -3.4588 L88.2741 -8.4432 Q88.2741 -9.0838 88.0788 -9.3729 Q87.8835 -9.662 87.5319 -9.7245 Q87.1803 -9.787 86.4147 -9.787 L86.4147 -10.6307 L89.9616 -10.8963 L89.9616 3.5724 Q89.9616 4.213 90.1569 4.5021 Q90.3522 4.7912 90.7116 4.8537 Q91.071 4.9162 91.821 4.9162 L91.821 5.7599 L88.2116 6.0255 L88.2116 4.5099 Q87.5866 5.2287 86.7272 5.6271 Q85.8678 6.0255 84.9928 6.0255 ZM82.5397 3.6662 Q82.9616 4.463 83.6413 4.9318 Q84.321 5.4005 85.1335 5.4005 Q86.1335 5.4005 86.9616 4.8224 Q87.7897 4.2443 88.2116 3.338 L88.2116 -2.4276 Q87.9303 -2.9432 87.5006 -3.3651 Q87.071 -3.787 86.5397 -4.0057 Q86.0085 -4.2245 85.3991 -4.2245 Q84.1491 -4.2245 83.3913 -3.5135 Q82.6335 -2.8026 82.3288 -1.701 Q82.0241 -0.5995 82.0241 0.6037 Q82.0241 1.5568 82.1178 2.2755 Q82.2116 2.9943 82.5397 3.6662 Z"
         id="path221" />
      <path
         style="stroke:none;"
         d="M98.4668 6.0255 Q97.0293 6.0255 95.795 5.2912 Q94.5606 4.5568 93.8496 3.3302 Q93.1387 2.1037 93.1387 0.6505 Q93.1387 -0.4588 93.5293 -1.4745 Q93.92 -2.4901 94.6543 -3.2948 Q95.3887 -4.0995 96.3575 -4.5526 Q97.3262 -5.0057 98.4668 -5.0057 Q99.9512 -5.0057 101.1621 -4.2245 Q102.3731 -3.4432 103.0762 -2.1385 Q103.7793 -0.8338 103.7793 0.6505 Q103.7793 2.088 103.0606 3.3224 Q102.3418 4.5568 101.1231 5.2912 Q99.9043 6.0255 98.4668 6.0255 ZM98.4668 5.3224 Q100.3887 5.3224 101.0371 3.9318 Q101.6856 2.5412 101.6856 0.3849 Q101.6856 -0.8338 101.5528 -1.6229 Q101.42 -2.412 100.9825 -3.0526 Q100.7168 -3.4588 100.3028 -3.7557 Q99.8887 -4.0526 99.4278 -4.2088 Q98.9668 -4.3651 98.4668 -4.3651 Q97.7168 -4.3651 97.045 -4.0292 Q96.3731 -3.6932 95.92 -3.0526 Q95.4825 -2.3807 95.3575 -1.5604 Q95.2325 -0.7401 95.2325 0.3849 Q95.2325 1.7287 95.4668 2.799 Q95.7012 3.8693 96.4121 4.5958 Q97.1231 5.3224 98.4668 5.3224 Z"
         id="path223" />
      <path
         style="stroke:none;"
         d="M118.4512 6.0255 Q116.9825 6.0255 115.7559 5.2599 Q114.5294 4.4943 113.8341 3.213 Q113.1387 1.9318 113.1387 0.4943 Q113.1387 -0.912 113.7794 -2.1776 Q114.42 -3.4432 115.5606 -4.2245 Q116.7012 -5.0057 118.1075 -5.0057 Q119.2012 -5.0057 120.0216 -4.6307 Q120.8419 -4.2557 121.3653 -3.5995 Q121.8887 -2.9432 122.1622 -2.0526 Q122.4356 -1.162 122.4356 -0.0995 Q122.4356 0.213 122.1856 0.213 L115.2325 0.213 L115.2325 0.4787 Q115.2325 2.463 116.0372 3.8927 Q116.8419 5.3224 118.6544 5.3224 Q119.3887 5.3224 120.0216 4.9943 Q120.6544 4.6662 121.1153 4.0802 Q121.5762 3.4943 121.7325 2.8224 Q121.7637 2.7443 121.8262 2.6818 Q121.8887 2.6193 121.9669 2.6193 L122.1856 2.6193 Q122.4356 2.6193 122.4356 2.9162 Q122.0919 4.2755 120.9669 5.1505 Q119.8419 6.0255 118.4512 6.0255 ZM115.2637 -0.3807 L120.7325 -0.3807 Q120.7325 -1.287 120.4825 -2.2088 Q120.2325 -3.1307 119.6466 -3.7479 Q119.0606 -4.3651 118.1075 -4.3651 Q116.7481 -4.3651 116.0059 -3.0917 Q115.2637 -1.8182 115.2637 -0.3807 Z"
         id="path225" />
      <path
         style="stroke:none;"
         d="M123.4304 5.7599 L123.4304 4.9162 Q124.3366 4.9162 125.1491 4.5568 Q125.9616 4.1974 126.5241 3.4943 L128.696 0.713 L125.8679 -2.9745 Q125.446 -3.5057 124.946 -3.6229 Q124.446 -3.7401 123.5398 -3.7401 L123.5398 -4.5838 L128.5398 -4.5838 L128.5398 -3.7401 Q128.2273 -3.7401 127.946 -3.5995 Q127.6648 -3.4588 127.6648 -3.1932 Q127.6648 -3.0995 127.7429 -2.9745 L129.6648 -0.4745 L131.1023 -2.3338 Q131.3991 -2.6776 131.3991 -3.037 Q131.3991 -3.3182 131.2038 -3.5292 Q131.0085 -3.7401 130.696 -3.7401 L130.696 -4.5838 L135.1179 -4.5838 L135.1179 -3.7401 Q134.1804 -3.7401 133.3679 -3.3885 Q132.5554 -3.037 131.9929 -2.3338 L130.1023 0.1037 L133.1648 4.1505 Q133.6179 4.6818 134.1101 4.799 Q134.6023 4.9162 135.5241 4.9162 L135.5241 5.7599 L130.5241 5.7599 L130.5241 4.9162 Q130.821 4.9162 131.0945 4.7755 Q131.3679 4.6349 131.3679 4.3693 Q131.3679 4.2599 131.2898 4.1505 L129.1335 1.2912 L127.4148 3.4943 Q127.1491 3.8068 127.1491 4.1974 Q127.1491 4.4943 127.3445 4.7052 Q127.5398 4.9162 127.8054 4.9162 L127.8054 5.7599 L123.4304 5.7599 Z"
         id="path227" />
      <path
         style="stroke:none;"
         d="M136.4252 10.4162 L136.4252 9.588 Q137.2377 9.588 137.769 9.4474 Q138.3002 9.3068 138.3002 8.8068 L138.3002 -2.7557 Q138.3002 -3.412 137.8315 -3.576 Q137.3627 -3.7401 136.4252 -3.7401 L136.4252 -4.5838 L139.9721 -4.8495 L139.9721 -3.3651 Q140.6284 -4.0838 141.5034 -4.4667 Q142.3784 -4.8495 143.3627 -4.8495 Q144.7846 -4.8495 145.9174 -4.0838 Q147.0502 -3.3182 147.6909 -2.0682 Q148.3315 -0.8182 148.3315 0.5724 Q148.3315 2.0255 147.6206 3.2833 Q146.9096 4.5412 145.6831 5.2833 Q144.4565 6.0255 143.0034 6.0255 Q141.2534 6.0255 140.0502 4.6037 L140.0502 8.8068 Q140.0502 9.3068 140.5815 9.4474 Q141.1127 9.588 141.9252 9.588 L141.9252 10.4162 L136.4252 10.4162 ZM140.0502 3.4318 Q140.4721 4.2755 141.2221 4.838 Q141.9721 5.4005 142.8627 5.4005 Q143.6909 5.4005 144.3315 4.9552 Q144.9721 4.5099 145.4018 3.7599 Q145.8315 3.0099 146.0346 2.1818 Q146.2377 1.3537 146.2377 0.5724 Q146.2377 -0.3807 145.894 -1.4979 Q145.5502 -2.6151 144.8393 -3.3885 Q144.1284 -4.162 143.1284 -4.162 Q142.1596 -4.162 141.3393 -3.662 Q140.519 -3.162 140.0502 -2.3026 L140.0502 3.4318 Z"
         id="path229" />
      <path
         style="stroke:none;"
         d="M155.7847 6.0255 Q154.3159 6.0255 153.0894 5.2599 Q151.8628 4.4943 151.1675 3.213 Q150.4722 1.9318 150.4722 0.4943 Q150.4722 -0.912 151.1128 -2.1776 Q151.7534 -3.4432 152.8941 -4.2245 Q154.0347 -5.0057 155.4409 -5.0057 Q156.5347 -5.0057 157.355 -4.6307 Q158.1753 -4.2557 158.6987 -3.5995 Q159.2222 -2.9432 159.4956 -2.0526 Q159.7691 -1.162 159.7691 -0.0995 Q159.7691 0.213 159.5191 0.213 L152.5659 0.213 L152.5659 0.4787 Q152.5659 2.463 153.3706 3.8927 Q154.1753 5.3224 155.9878 5.3224 Q156.7222 5.3224 157.355 4.9943 Q157.9878 4.6662 158.4487 4.0802 Q158.9097 3.4943 159.0659 2.8224 Q159.0972 2.7443 159.1597 2.6818 Q159.2222 2.6193 159.3003 2.6193 L159.5191 2.6193 Q159.7691 2.6193 159.7691 2.9162 Q159.4253 4.2755 158.3003 5.1505 Q157.1753 6.0255 155.7847 6.0255 ZM152.5972 -0.3807 L158.0659 -0.3807 Q158.0659 -1.287 157.8159 -2.2088 Q157.5659 -3.1307 156.98 -3.7479 Q156.3941 -4.3651 155.4409 -4.3651 Q154.0816 -4.3651 153.3394 -3.0917 Q152.5972 -1.8182 152.5972 -0.3807 Z"
         id="path231" />
      <path
         style="stroke:none;"
         d="M161.092 5.7599 L161.092 4.9162 Q161.9045 4.9162 162.4357 4.7833 Q162.967 4.6505 162.967 4.1505 L162.967 -2.3963 Q162.967 -3.037 162.7717 -3.326 Q162.5764 -3.6151 162.217 -3.6776 Q161.8576 -3.7401 161.092 -3.7401 L161.092 -4.5838 L164.5295 -4.8495 L164.5295 -2.5057 Q164.9045 -3.5526 165.6232 -4.201 Q166.342 -4.8495 167.3576 -4.8495 Q168.0764 -4.8495 168.6389 -4.4276 Q169.2014 -4.0057 169.2014 -3.3182 Q169.2014 -2.8807 168.8889 -2.5604 Q168.5764 -2.2401 168.1232 -2.2401 Q167.6701 -2.2401 167.3576 -2.5526 Q167.0451 -2.8651 167.0451 -3.3182 Q167.0451 -3.9588 167.4982 -4.2245 L167.3576 -4.2245 Q166.3889 -4.2245 165.7717 -3.5213 Q165.1545 -2.8182 164.8967 -1.7792 Q164.6389 -0.7401 164.6389 0.213 L164.6389 4.1505 Q164.6389 4.9162 166.967 4.9162 L166.967 5.7599 L161.092 5.7599 Z"
         id="path233" />
      <path
         style="stroke:none;"
         d="M170.6014 5.7599 L170.6014 4.9162 Q171.4295 4.9162 171.9529 4.7833 Q172.4764 4.6505 172.4764 4.1505 L172.4764 -2.3963 Q172.4764 -3.3182 172.1248 -3.5292 Q171.7732 -3.7401 170.7107 -3.7401 L170.7107 -4.5838 L174.1639 -4.8495 L174.1639 4.1505 Q174.1639 4.6505 174.6248 4.7833 Q175.0857 4.9162 175.8514 4.9162 L175.8514 5.7599 L170.6014 5.7599 ZM171.6326 -8.9745 Q171.6326 -9.5057 172.0311 -9.9042 Q172.4295 -10.3026 172.9451 -10.3026 Q173.2732 -10.3026 173.5936 -10.1229 Q173.9139 -9.9432 174.0857 -9.6307 Q174.2576 -9.3182 174.2576 -8.9745 Q174.2576 -8.4588 173.8592 -8.0604 Q173.4607 -7.662 172.9451 -7.662 Q172.4295 -7.662 172.0311 -8.0604 Q171.6326 -8.4588 171.6326 -8.9745 Z"
         id="path235" />
      <path
         style="stroke:none;"
         d="M177.2524 5.7599 L177.2524 4.9162 Q178.0649 4.9162 178.5962 4.7833 Q179.1274 4.6505 179.1274 4.1505 L179.1274 -2.3963 Q179.1274 -3.037 178.9321 -3.326 Q178.7368 -3.6151 178.3774 -3.6776 Q178.0181 -3.7401 177.2524 -3.7401 L177.2524 -4.5838 L180.7368 -4.8495 L180.7368 -2.5057 Q181.2056 -3.537 182.1509 -4.1932 Q183.0962 -4.8495 184.2056 -4.8495 Q186.9712 -4.8495 187.4556 -2.5995 Q187.9399 -3.5995 188.8618 -4.2245 Q189.7837 -4.8495 190.8931 -4.8495 Q191.9868 -4.8495 192.729 -4.4979 Q193.4712 -4.1463 193.8462 -3.4276 Q194.2212 -2.7088 194.2212 -1.6151 L194.2212 4.1505 Q194.2212 4.6505 194.7524 4.7833 Q195.2837 4.9162 196.0962 4.9162 L196.0962 5.7599 L190.5962 5.7599 L190.5962 4.9162 Q191.4243 4.9162 191.9477 4.7833 Q192.4712 4.6505 192.4712 4.1505 L192.4712 -1.537 Q192.4712 -2.7557 192.1352 -3.4901 Q191.7993 -4.2245 190.7368 -4.2245 Q189.3618 -4.2245 188.4556 -3.1151 Q187.5493 -2.0057 187.5493 -0.5838 L187.5493 4.1505 Q187.5493 4.6505 188.0806 4.7833 Q188.6118 4.9162 189.4243 4.9162 L189.4243 5.7599 L183.9243 5.7599 L183.9243 4.9162 Q184.7524 4.9162 185.2759 4.7833 Q185.7993 4.6505 185.7993 4.1505 L185.7993 -1.537 Q185.7993 -2.7088 185.4634 -3.4667 Q185.1274 -4.2245 184.0649 -4.2245 Q182.6743 -4.2245 181.7759 -3.1151 Q180.8774 -2.0057 180.8774 -0.5838 L180.8774 4.1505 Q180.8774 4.6505 181.4087 4.7833 Q181.9399 4.9162 182.7524 4.9162 L182.7524 5.7599 L177.2524 5.7599 Z"
         id="path237" />
      <path
         style="stroke:none;"
         d="M202.5181 6.0255 Q201.0494 6.0255 199.8228 5.2599 Q198.5962 4.4943 197.9009 3.213 Q197.2056 1.9318 197.2056 0.4943 Q197.2056 -0.912 197.8462 -2.1776 Q198.4869 -3.4432 199.6275 -4.2245 Q200.7681 -5.0057 202.1744 -5.0057 Q203.2681 -5.0057 204.0884 -4.6307 Q204.9087 -4.2557 205.4322 -3.5995 Q205.9556 -2.9432 206.229 -2.0526 Q206.5025 -1.162 206.5025 -0.0995 Q206.5025 0.213 206.2525 0.213 L199.2994 0.213 L199.2994 0.4787 Q199.2994 2.463 200.104 3.8927 Q200.9087 5.3224 202.7212 5.3224 Q203.4556 5.3224 204.0884 4.9943 Q204.7212 4.6662 205.1822 4.0802 Q205.6431 3.4943 205.7994 2.8224 Q205.8306 2.7443 205.8931 2.6818 Q205.9556 2.6193 206.0337 2.6193 L206.2525 2.6193 Q206.5025 2.6193 206.5025 2.9162 Q206.1587 4.2755 205.0337 5.1505 Q203.9087 6.0255 202.5181 6.0255 ZM199.3306 -0.3807 L204.7994 -0.3807 Q204.7994 -1.287 204.5494 -2.2088 Q204.2994 -3.1307 203.7134 -3.7479 Q203.1275 -4.3651 202.1744 -4.3651 Q200.815 -4.3651 200.0728 -3.0917 Q199.3306 -1.8182 199.3306 -0.3807 Z"
         id="path239" />
      <path
         style="stroke:none;"
         d="M207.9191 5.7599 L207.9191 4.9162 Q208.7316 4.9162 209.2629 4.7833 Q209.7941 4.6505 209.7941 4.1505 L209.7941 -2.3963 Q209.7941 -3.037 209.5988 -3.326 Q209.4035 -3.6151 209.0441 -3.6776 Q208.6848 -3.7401 207.9191 -3.7401 L207.9191 -4.5838 L211.4035 -4.8495 L211.4035 -2.5057 Q211.8723 -3.537 212.8176 -4.1932 Q213.7629 -4.8495 214.8723 -4.8495 Q216.5441 -4.8495 217.3801 -4.0526 Q218.216 -3.2557 218.216 -1.6151 L218.216 4.1505 Q218.216 4.6505 218.7473 4.7833 Q219.2785 4.9162 220.091 4.9162 L220.091 5.7599 L214.591 5.7599 L214.591 4.9162 Q215.4191 4.9162 215.9426 4.7833 Q216.466 4.6505 216.466 4.1505 L216.466 -1.537 Q216.466 -2.7088 216.1301 -3.4667 Q215.7941 -4.2245 214.7316 -4.2245 Q213.341 -4.2245 212.4426 -3.1151 Q211.5441 -2.0057 211.5441 -0.5838 L211.5441 4.1505 Q211.5441 4.6505 212.0754 4.7833 Q212.6066 4.9162 213.4191 4.9162 L213.4191 5.7599 L207.9191 5.7599 Z"
         id="path241" />
      <path
         style="stroke:none;"
         d="M222.3202 2.8693 L222.3202 -3.7401 L220.3202 -3.7401 L220.3202 -4.3651 Q221.8983 -4.3651 222.6327 -5.8338 Q223.3671 -7.3026 223.3671 -9.0057 L224.0702 -9.0057 L224.0702 -4.5838 L227.4452 -4.5838 L227.4452 -3.7401 L224.0702 -3.7401 L224.0702 2.8224 Q224.0702 3.8224 224.3983 4.5724 Q224.7265 5.3224 225.6015 5.3224 Q226.414 5.3224 226.7811 4.5333 Q227.1483 3.7443 227.1483 2.8224 L227.1483 1.4162 L227.8358 1.4162 L227.8358 2.8693 Q227.8358 3.6193 227.5624 4.3537 Q227.289 5.088 226.7499 5.5568 Q226.2108 6.0255 225.4296 6.0255 Q223.9921 6.0255 223.1561 5.1662 Q222.3202 4.3068 222.3202 2.8693 Z"
         id="path243" />
      <path
         style="stroke:none;"
         d="M230.1692 3.4005 Q230.1692 1.9787 231.2942 1.0802 Q232.4192 0.1818 233.9895 -0.1854 Q235.5598 -0.5526 236.9817 -0.5526 L236.9817 -1.537 Q236.9817 -2.2401 236.677 -2.8885 Q236.3723 -3.537 235.802 -3.951 Q235.2317 -4.3651 234.5286 -4.3651 Q232.9348 -4.3651 232.1067 -3.6463 Q232.5598 -3.6463 232.8645 -3.3026 Q233.1692 -2.9588 233.1692 -2.5057 Q233.1692 -2.0213 232.8255 -1.6854 Q232.4817 -1.3495 232.013 -1.3495 Q231.5286 -1.3495 231.1926 -1.6854 Q230.8567 -2.0213 230.8567 -2.5057 Q230.8567 -3.7713 232.0051 -4.3885 Q233.1536 -5.0057 234.5286 -5.0057 Q235.513 -5.0057 236.4973 -4.5838 Q237.4817 -4.162 238.1067 -3.3885 Q238.7317 -2.6151 238.7317 -1.5838 L238.7317 3.8068 Q238.7317 4.2755 238.927 4.674 Q239.1223 5.0724 239.5442 5.0724 Q239.9505 5.0724 240.1458 4.674 Q240.3411 4.2755 240.3411 3.8068 L240.3411 2.2755 L241.0442 2.2755 L241.0442 3.8068 Q241.0442 4.3537 240.763 4.838 Q240.4817 5.3224 240.0051 5.6115 Q239.5286 5.9005 238.9817 5.9005 Q238.2786 5.9005 237.763 5.3537 Q237.2473 4.8068 237.2005 4.0568 Q236.7473 4.963 235.8801 5.4943 Q235.013 6.0255 234.0286 6.0255 Q233.1223 6.0255 232.2317 5.7599 Q231.3411 5.4943 230.7551 4.9083 Q230.1692 4.3224 230.1692 3.4005 ZM232.1067 3.4005 Q232.1067 4.2443 232.7317 4.8224 Q233.3567 5.4005 234.2005 5.4005 Q234.9661 5.4005 235.5989 5.0099 Q236.2317 4.6193 236.6067 3.9552 Q236.9817 3.2912 236.9817 2.5412 L236.9817 0.0568 Q235.888 0.0568 234.7473 0.4083 Q233.6067 0.7599 232.8567 1.5255 Q232.1067 2.2912 232.1067 3.4005 Z"
         id="path245" />
      <path
         style="stroke:none;"
         d="M241.9349 5.7599 L241.9349 4.9162 Q242.763 4.9162 243.2864 4.7833 Q243.8099 4.6505 243.8099 4.1505 L243.8099 -8.4432 Q243.8099 -9.0838 243.6224 -9.3729 Q243.4349 -9.662 243.0677 -9.7245 Q242.7005 -9.787 241.9349 -9.787 L241.9349 -10.6307 L245.4974 -10.8963 L245.4974 4.1505 Q245.4974 4.6505 246.0286 4.7833 Q246.5599 4.9162 247.3724 4.9162 L247.3724 5.7599 L241.9349 5.7599 Z"
         id="path247" />
    </g>
    <g
       style="stroke-linecap:butt; text-rendering:geometricPrecision; color-rendering:optimizeQuality; image-rendering:optimizeQuality; stroke-linejoin:round; color-interpolation:linearRGB; stroke-width:0.6667;"
       id="g253">
      <line
         y2="76.3736"
         style="fill:none;"
         x1="925.0018"
         x2="965.0195"
         y1="76.3736"
         id="line251" />
    </g>
    <g
       transform="translate(968.0209,105.6264)"
       style="font-size:24px; text-rendering:geometricPrecision; color-rendering:optimizeQuality; image-rendering:optimizeQuality; font-family:'mwa_cmr10'; color-interpolation:linearRGB;"
       id="g257">
      <path
         style="stroke:none;"
         d="M5.4688 3.1974 Q6.2969 4.2287 7.5234 4.838 Q8.75 5.4474 10.0781 5.4474 Q11.1875 5.4474 12.1406 5.0021 Q13.0938 4.5568 13.8047 3.7755 Q14.5156 2.9943 14.8906 1.9943 Q15.2656 0.9943 15.2656 -0.0995 Q15.2656 -0.287 15.4844 -0.287 L15.7812 -0.287 Q15.9688 -0.287 15.9688 -0.0526 Q15.9688 1.1974 15.4844 2.3615 Q15 3.5255 14.125 4.4162 Q13.25 5.3068 12.1016 5.799 Q10.9531 6.2912 9.7188 6.2912 Q8 6.2912 6.4531 5.588 Q4.9062 4.8849 3.7656 3.674 Q2.625 2.463 1.9844 0.8693 Q1.3438 -0.7245 1.3438 -2.4432 Q1.3438 -4.162 1.9844 -5.7557 Q2.625 -7.3495 3.7656 -8.5682 Q4.9062 -9.787 6.4531 -10.4745 Q8 -11.162 9.7188 -11.162 Q10.9531 -11.162 12.0781 -10.6307 Q13.2031 -10.0995 14.0469 -9.1307 L15.4375 -11.0995 Q15.5781 -11.162 15.5938 -11.162 L15.7812 -11.162 Q15.8438 -11.162 15.9062 -11.1073 Q15.9688 -11.0526 15.9688 -10.9588 L15.9688 -4.4901 Q15.9688 -4.2713 15.7812 -4.2713 L15.3438 -4.2713 Q15.125 -4.2713 15.125 -4.4901 Q15.125 -5.1776 14.8438 -6.0292 Q14.5625 -6.8807 14.1406 -7.6542 Q13.7188 -8.4276 13.1562 -9.0057 Q11.7969 -10.3182 10.0625 -10.3182 Q8.7344 -10.3182 7.5234 -9.7245 Q6.3125 -9.1307 5.4688 -8.0682 Q4.5938 -6.9432 4.2578 -5.5057 Q3.9219 -4.0682 3.9219 -2.4432 Q3.9219 -0.8182 4.2578 0.6271 Q4.5938 2.0724 5.4688 3.1974 Z"
         id="path255" />
    </g>
    <g
       transform="translate(968.0209,105.6264)"
       style="font-size:24px; text-rendering:geometricPrecision; color-rendering:optimizeQuality; image-rendering:optimizeQuality; font-family:'mwa_cmr10'; color-interpolation:linearRGB;"
       id="g287">
      <path
         style="stroke:none;"
         d="M19.9271 2.9005 L19.9271 -2.3963 Q19.9271 -3.037 19.7318 -3.326 Q19.5365 -3.6151 19.1771 -3.6776 Q18.8177 -3.7401 18.0521 -3.7401 L18.0521 -4.5838 L21.6771 -4.8495 L21.6771 2.9005 Q21.6771 3.838 21.8177 4.3615 Q21.9584 4.8849 22.3959 5.1427 Q22.8334 5.4005 23.7865 5.4005 Q25.0834 5.4005 25.8412 4.3224 Q26.599 3.2443 26.599 1.8693 L26.599 -2.3963 Q26.599 -3.037 26.4037 -3.326 Q26.2084 -3.6151 25.849 -3.6776 Q25.4896 -3.7401 24.724 -3.7401 L24.724 -4.5838 L28.349 -4.8495 L28.349 3.5724 Q28.349 4.213 28.5443 4.5021 Q28.7396 4.7912 29.099 4.8537 Q29.4584 4.9162 30.224 4.9162 L30.224 5.7599 L26.6771 6.0255 L26.6771 3.9943 Q26.224 4.9005 25.4271 5.463 Q24.6302 6.0255 23.6771 6.0255 Q21.9584 6.0255 20.9427 5.2912 Q19.9271 4.5568 19.9271 2.9005 Z"
         id="path259" />
      <path
         style="stroke:none;"
         d="M31.2917 5.7599 L31.2917 4.9162 Q32.1042 4.9162 32.6355 4.7833 Q33.1667 4.6505 33.1667 4.1505 L33.1667 -2.3963 Q33.1667 -3.037 32.9714 -3.326 Q32.7761 -3.6151 32.4167 -3.6776 Q32.0574 -3.7401 31.2917 -3.7401 L31.2917 -4.5838 L34.7292 -4.8495 L34.7292 -2.5057 Q35.1042 -3.5526 35.823 -4.201 Q36.5417 -4.8495 37.5574 -4.8495 Q38.2761 -4.8495 38.8386 -4.4276 Q39.4011 -4.0057 39.4011 -3.3182 Q39.4011 -2.8807 39.0886 -2.5604 Q38.7761 -2.2401 38.323 -2.2401 Q37.8699 -2.2401 37.5574 -2.5526 Q37.2449 -2.8651 37.2449 -3.3182 Q37.2449 -3.9588 37.698 -4.2245 L37.5574 -4.2245 Q36.5886 -4.2245 35.9714 -3.5213 Q35.3542 -2.8182 35.0964 -1.7792 Q34.8386 -0.7401 34.8386 0.213 L34.8386 4.1505 Q34.8386 4.9162 37.1667 4.9162 L37.1667 5.7599 L31.2917 5.7599 Z"
         id="path261" />
      <path
         style="stroke:none;"
         d="M45.9261 5.7599 L42.4261 -3.0526 Q42.2074 -3.5057 41.7386 -3.6229 Q41.2699 -3.7401 40.5199 -3.7401 L40.5199 -4.5838 L45.5667 -4.5838 L45.5667 -3.7401 Q44.223 -3.7401 44.223 -3.1776 Q44.223 -3.0838 44.2386 -3.037 L46.9417 3.7443 L49.3636 -2.3807 Q49.4261 -2.5682 49.4261 -2.7557 Q49.4261 -3.2245 49.0824 -3.4823 Q48.7386 -3.7401 48.2699 -3.7401 L48.2699 -4.5838 L52.2542 -4.5838 L52.2542 -3.7401 Q51.5199 -3.7401 50.9652 -3.4042 Q50.4105 -3.0682 50.098 -2.3963 L46.8636 5.7599 Q46.7699 6.0255 46.473 6.0255 L46.3011 6.0255 Q46.0042 6.0255 45.9261 5.7599 Z"
         id="path263" />
      <path
         style="stroke:none;"
         d="M52.3689 3.4005 Q52.3689 1.9787 53.4939 1.0802 Q54.6189 0.1818 56.1892 -0.1854 Q57.7595 -0.5526 59.1814 -0.5526 L59.1814 -1.537 Q59.1814 -2.2401 58.8767 -2.8885 Q58.572 -3.537 58.0017 -3.951 Q57.4314 -4.3651 56.7282 -4.3651 Q55.1345 -4.3651 54.3064 -3.6463 Q54.7595 -3.6463 55.0642 -3.3026 Q55.3689 -2.9588 55.3689 -2.5057 Q55.3689 -2.0213 55.0251 -1.6854 Q54.6814 -1.3495 54.2126 -1.3495 Q53.7282 -1.3495 53.3923 -1.6854 Q53.0564 -2.0213 53.0564 -2.5057 Q53.0564 -3.7713 54.2048 -4.3885 Q55.3532 -5.0057 56.7282 -5.0057 Q57.7126 -5.0057 58.697 -4.5838 Q59.6814 -4.162 60.3064 -3.3885 Q60.9314 -2.6151 60.9314 -1.5838 L60.9314 3.8068 Q60.9314 4.2755 61.1267 4.674 Q61.322 5.0724 61.7439 5.0724 Q62.1501 5.0724 62.3454 4.674 Q62.5407 4.2755 62.5407 3.8068 L62.5407 2.2755 L63.2439 2.2755 L63.2439 3.8068 Q63.2439 4.3537 62.9626 4.838 Q62.6814 5.3224 62.2048 5.6115 Q61.7282 5.9005 61.1814 5.9005 Q60.4782 5.9005 59.9626 5.3537 Q59.447 4.8068 59.4001 4.0568 Q58.947 4.963 58.0798 5.4943 Q57.2126 6.0255 56.2282 6.0255 Q55.322 6.0255 54.4314 5.7599 Q53.5407 5.4943 52.9548 4.9083 Q52.3689 4.3224 52.3689 3.4005 ZM54.3064 3.4005 Q54.3064 4.2443 54.9314 4.8224 Q55.5564 5.4005 56.4001 5.4005 Q57.1657 5.4005 57.7986 5.0099 Q58.4314 4.6193 58.8064 3.9552 Q59.1814 3.2912 59.1814 2.5412 L59.1814 0.0568 Q58.0876 0.0568 56.947 0.4083 Q55.8064 0.7599 55.0564 1.5255 Q54.3064 2.2912 54.3064 3.4005 Z"
         id="path265" />
      <path
         style="stroke:none;"
         d="M72.3689 3.4005 Q72.3689 1.9787 73.4939 1.0802 Q74.6189 0.1818 76.1892 -0.1854 Q77.7595 -0.5526 79.1814 -0.5526 L79.1814 -1.537 Q79.1814 -2.2401 78.8767 -2.8885 Q78.572 -3.537 78.0017 -3.951 Q77.4314 -4.3651 76.7283 -4.3651 Q75.1345 -4.3651 74.3064 -3.6463 Q74.7595 -3.6463 75.0642 -3.3026 Q75.3689 -2.9588 75.3689 -2.5057 Q75.3689 -2.0213 75.0251 -1.6854 Q74.6814 -1.3495 74.2126 -1.3495 Q73.7283 -1.3495 73.3923 -1.6854 Q73.0564 -2.0213 73.0564 -2.5057 Q73.0564 -3.7713 74.2048 -4.3885 Q75.3533 -5.0057 76.7283 -5.0057 Q77.7126 -5.0057 78.697 -4.5838 Q79.6814 -4.162 80.3064 -3.3885 Q80.9314 -2.6151 80.9314 -1.5838 L80.9314 3.8068 Q80.9314 4.2755 81.1267 4.674 Q81.322 5.0724 81.7439 5.0724 Q82.1501 5.0724 82.3455 4.674 Q82.5408 4.2755 82.5408 3.8068 L82.5408 2.2755 L83.2439 2.2755 L83.2439 3.8068 Q83.2439 4.3537 82.9626 4.838 Q82.6814 5.3224 82.2048 5.6115 Q81.7283 5.9005 81.1814 5.9005 Q80.4783 5.9005 79.9626 5.3537 Q79.447 4.8068 79.4001 4.0568 Q78.947 4.963 78.0798 5.4943 Q77.2126 6.0255 76.2283 6.0255 Q75.322 6.0255 74.4314 5.7599 Q73.5408 5.4943 72.9548 4.9083 Q72.3689 4.3224 72.3689 3.4005 ZM74.3064 3.4005 Q74.3064 4.2443 74.9314 4.8224 Q75.5564 5.4005 76.4001 5.4005 Q77.1658 5.4005 77.7986 5.0099 Q78.4314 4.6193 78.8064 3.9552 Q79.1814 3.2912 79.1814 2.5412 L79.1814 0.0568 Q78.0876 0.0568 76.947 0.4083 Q75.8064 0.7599 75.0564 1.5255 Q74.3064 2.2912 74.3064 3.4005 Z"
         id="path267" />
      <path
         style="stroke:none;"
         d="M84.0252 10.4162 L84.0252 9.588 Q84.8377 9.588 85.3689 9.4474 Q85.9002 9.3068 85.9002 8.8068 L85.9002 -2.7557 Q85.9002 -3.412 85.4314 -3.576 Q84.9627 -3.7401 84.0252 -3.7401 L84.0252 -4.5838 L87.5721 -4.8495 L87.5721 -3.3651 Q88.2283 -4.0838 89.1033 -4.4667 Q89.9783 -4.8495 90.9627 -4.8495 Q92.3846 -4.8495 93.5174 -4.0838 Q94.6502 -3.3182 95.2908 -2.0682 Q95.9314 -0.8182 95.9314 0.5724 Q95.9314 2.0255 95.2205 3.2833 Q94.5096 4.5412 93.283 5.2833 Q92.0564 6.0255 90.6033 6.0255 Q88.8533 6.0255 87.6502 4.6037 L87.6502 8.8068 Q87.6502 9.3068 88.1814 9.4474 Q88.7127 9.588 89.5252 9.588 L89.5252 10.4162 L84.0252 10.4162 ZM87.6502 3.4318 Q88.0721 4.2755 88.8221 4.838 Q89.5721 5.4005 90.4627 5.4005 Q91.2908 5.4005 91.9314 4.9552 Q92.5721 4.5099 93.0017 3.7599 Q93.4314 3.0099 93.6346 2.1818 Q93.8377 1.3537 93.8377 0.5724 Q93.8377 -0.3807 93.4939 -1.4979 Q93.1502 -2.6151 92.4392 -3.3885 Q91.7283 -4.162 90.7283 -4.162 Q89.7596 -4.162 88.9392 -3.662 Q88.1189 -3.162 87.6502 -2.3026 L87.6502 3.4318 Z"
         id="path269" />
      <path
         style="stroke:none;"
         d="M97.3586 5.7599 L97.3586 4.9162 Q98.1711 4.9162 98.7023 4.7833 Q99.2336 4.6505 99.2336 4.1505 L99.2336 -2.3963 Q99.2336 -3.037 99.0382 -3.326 Q98.8429 -3.6151 98.4836 -3.6776 Q98.1242 -3.7401 97.3586 -3.7401 L97.3586 -4.5838 L100.7961 -4.8495 L100.7961 -2.5057 Q101.1711 -3.5526 101.8898 -4.201 Q102.6086 -4.8495 103.6242 -4.8495 Q104.3429 -4.8495 104.9054 -4.4276 Q105.4679 -4.0057 105.4679 -3.3182 Q105.4679 -2.8807 105.1554 -2.5604 Q104.8429 -2.2401 104.3898 -2.2401 Q103.9367 -2.2401 103.6242 -2.5526 Q103.3117 -2.8651 103.3117 -3.3182 Q103.3117 -3.9588 103.7648 -4.2245 L103.6242 -4.2245 Q102.6554 -4.2245 102.0382 -3.5213 Q101.4211 -2.8182 101.1632 -1.7792 Q100.9054 -0.7401 100.9054 0.213 L100.9054 4.1505 Q100.9054 4.9162 103.2336 4.9162 L103.2336 5.7599 L97.3586 5.7599 Z"
         id="path271" />
      <path
         style="stroke:none;"
         d="M112.1336 6.0255 Q110.6961 6.0255 109.4617 5.2912 Q108.2273 4.5568 107.5164 3.3302 Q106.8055 2.1037 106.8055 0.6505 Q106.8055 -0.4588 107.1961 -1.4745 Q107.5867 -2.4901 108.3211 -3.2948 Q109.0555 -4.0995 110.0242 -4.5526 Q110.993 -5.0057 112.1336 -5.0057 Q113.618 -5.0057 114.8289 -4.2245 Q116.0398 -3.4432 116.743 -2.1385 Q117.4461 -0.8338 117.4461 0.6505 Q117.4461 2.088 116.7273 3.3224 Q116.0086 4.5568 114.7898 5.2912 Q113.5711 6.0255 112.1336 6.0255 ZM112.1336 5.3224 Q114.0555 5.3224 114.7039 3.9318 Q115.3523 2.5412 115.3523 0.3849 Q115.3523 -0.8338 115.2195 -1.6229 Q115.0867 -2.412 114.6492 -3.0526 Q114.3836 -3.4588 113.9695 -3.7557 Q113.5555 -4.0526 113.0945 -4.2088 Q112.6336 -4.3651 112.1336 -4.3651 Q111.3836 -4.3651 110.7117 -4.0292 Q110.0398 -3.6932 109.5867 -3.0526 Q109.1492 -2.3807 109.0242 -1.5604 Q108.8992 -0.7401 108.8992 0.3849 Q108.8992 1.7287 109.1336 2.799 Q109.368 3.8693 110.0789 4.5958 Q110.7898 5.3224 112.1336 5.3224 Z"
         id="path273" />
      <path
         style="stroke:none;"
         d="M117.7638 5.7599 L117.7638 4.9162 Q118.6701 4.9162 119.4826 4.5568 Q120.2951 4.1974 120.8576 3.4943 L123.0294 0.713 L120.2013 -2.9745 Q119.7794 -3.5057 119.2794 -3.6229 Q118.7794 -3.7401 117.8732 -3.7401 L117.8732 -4.5838 L122.8732 -4.5838 L122.8732 -3.7401 Q122.5607 -3.7401 122.2794 -3.5995 Q121.9982 -3.4588 121.9982 -3.1932 Q121.9982 -3.0995 122.0763 -2.9745 L123.9982 -0.4745 L125.4357 -2.3338 Q125.7326 -2.6776 125.7326 -3.037 Q125.7326 -3.3182 125.5372 -3.5292 Q125.3419 -3.7401 125.0294 -3.7401 L125.0294 -4.5838 L129.4513 -4.5838 L129.4513 -3.7401 Q128.5138 -3.7401 127.7013 -3.3885 Q126.8888 -3.037 126.3263 -2.3338 L124.4357 0.1037 L127.4982 4.1505 Q127.9513 4.6818 128.4435 4.799 Q128.9357 4.9162 129.8575 4.9162 L129.8575 5.7599 L124.8576 5.7599 L124.8576 4.9162 Q125.1544 4.9162 125.4279 4.7755 Q125.7013 4.6349 125.7013 4.3693 Q125.7013 4.2599 125.6232 4.1505 L123.4669 1.2912 L121.7482 3.4943 Q121.4826 3.8068 121.4826 4.1974 Q121.4826 4.4943 121.6779 4.7052 Q121.8732 4.9162 122.1388 4.9162 L122.1388 5.7599 L117.7638 5.7599 Z"
         id="path275" />
      <path
         style="stroke:none;"
         d="M130.868 5.7599 L130.868 4.9162 Q131.6962 4.9162 132.2196 4.7833 Q132.743 4.6505 132.743 4.1505 L132.743 -2.3963 Q132.743 -3.3182 132.3915 -3.5292 Q132.0399 -3.7401 130.9774 -3.7401 L130.9774 -4.5838 L134.4305 -4.8495 L134.4305 4.1505 Q134.4305 4.6505 134.8915 4.7833 Q135.3524 4.9162 136.118 4.9162 L136.118 5.7599 L130.868 5.7599 ZM131.8993 -8.9745 Q131.8993 -9.5057 132.2977 -9.9042 Q132.6962 -10.3026 133.2118 -10.3026 Q133.5399 -10.3026 133.8602 -10.1229 Q134.1805 -9.9432 134.3524 -9.6307 Q134.5243 -9.3182 134.5243 -8.9745 Q134.5243 -8.4588 134.1258 -8.0604 Q133.7274 -7.662 133.2118 -7.662 Q132.6962 -7.662 132.2977 -8.0604 Q131.8993 -8.4588 131.8993 -8.9745 Z"
         id="path277" />
      <path
         style="stroke:none;"
         d="M137.5191 5.7599 L137.5191 4.9162 Q138.3316 4.9162 138.8628 4.7833 Q139.3941 4.6505 139.3941 4.1505 L139.3941 -2.3963 Q139.3941 -3.037 139.1988 -3.326 Q139.0035 -3.6151 138.6441 -3.6776 Q138.2847 -3.7401 137.5191 -3.7401 L137.5191 -4.5838 L141.0035 -4.8495 L141.0035 -2.5057 Q141.4722 -3.537 142.4175 -4.1932 Q143.3628 -4.8495 144.4722 -4.8495 Q147.2378 -4.8495 147.7222 -2.5995 Q148.2066 -3.5995 149.1285 -4.2245 Q150.0503 -4.8495 151.1597 -4.8495 Q152.2535 -4.8495 152.9957 -4.4979 Q153.7378 -4.1463 154.1128 -3.4276 Q154.4878 -2.7088 154.4878 -1.6151 L154.4878 4.1505 Q154.4878 4.6505 155.0191 4.7833 Q155.5503 4.9162 156.3628 4.9162 L156.3628 5.7599 L150.8628 5.7599 L150.8628 4.9162 Q151.691 4.9162 152.2144 4.7833 Q152.7378 4.6505 152.7378 4.1505 L152.7378 -1.537 Q152.7378 -2.7557 152.4019 -3.4901 Q152.066 -4.2245 151.0035 -4.2245 Q149.6285 -4.2245 148.7222 -3.1151 Q147.816 -2.0057 147.816 -0.5838 L147.816 4.1505 Q147.816 4.6505 148.3472 4.7833 Q148.8785 4.9162 149.691 4.9162 L149.691 5.7599 L144.191 5.7599 L144.191 4.9162 Q145.0191 4.9162 145.5425 4.7833 Q146.066 4.6505 146.066 4.1505 L146.066 -1.537 Q146.066 -2.7088 145.73 -3.4667 Q145.3941 -4.2245 144.3316 -4.2245 Q142.941 -4.2245 142.0425 -3.1151 Q141.1441 -2.0057 141.1441 -0.5838 L141.1441 4.1505 Q141.1441 4.6505 141.6753 4.7833 Q142.2066 4.9162 143.0191 4.9162 L143.0191 5.7599 L137.5191 5.7599 Z"
         id="path279" />
      <path
         style="stroke:none;"
         d="M157.7691 3.4005 Q157.7691 1.9787 158.8941 1.0802 Q160.0191 0.1818 161.5895 -0.1854 Q163.1598 -0.5526 164.5816 -0.5526 L164.5816 -1.537 Q164.5816 -2.2401 164.277 -2.8885 Q163.9723 -3.537 163.402 -3.951 Q162.8316 -4.3651 162.1285 -4.3651 Q160.5348 -4.3651 159.7066 -3.6463 Q160.1598 -3.6463 160.4645 -3.3026 Q160.7691 -2.9588 160.7691 -2.5057 Q160.7691 -2.0213 160.4254 -1.6854 Q160.0816 -1.3495 159.6129 -1.3495 Q159.1285 -1.3495 158.7926 -1.6854 Q158.4566 -2.0213 158.4566 -2.5057 Q158.4566 -3.7713 159.6051 -4.3885 Q160.7535 -5.0057 162.1285 -5.0057 Q163.1129 -5.0057 164.0973 -4.5838 Q165.0816 -4.162 165.7066 -3.3885 Q166.3316 -2.6151 166.3316 -1.5838 L166.3316 3.8068 Q166.3316 4.2755 166.527 4.674 Q166.7223 5.0724 167.1441 5.0724 Q167.5504 5.0724 167.7457 4.674 Q167.941 4.2755 167.941 3.8068 L167.941 2.2755 L168.6441 2.2755 L168.6441 3.8068 Q168.6441 4.3537 168.3629 4.838 Q168.0816 5.3224 167.6051 5.6115 Q167.1285 5.9005 166.5816 5.9005 Q165.8785 5.9005 165.3629 5.3537 Q164.8473 4.8068 164.8004 4.0568 Q164.3473 4.963 163.4801 5.4943 Q162.6129 6.0255 161.6285 6.0255 Q160.7223 6.0255 159.8316 5.7599 Q158.941 5.4943 158.3551 4.9083 Q157.7691 4.3224 157.7691 3.4005 ZM159.7066 3.4005 Q159.7066 4.2443 160.3316 4.8224 Q160.9566 5.4005 161.8004 5.4005 Q162.566 5.4005 163.1988 5.0099 Q163.8316 4.6193 164.2066 3.9552 Q164.5816 3.2912 164.5816 2.5412 L164.5816 0.0568 Q163.4879 0.0568 162.3473 0.4083 Q161.2066 0.7599 160.4566 1.5255 Q159.7066 2.2912 159.7066 3.4005 Z"
         id="path281" />
      <path
         style="stroke:none;"
         d="M174.6598 6.0255 Q173.2379 6.0255 172.0661 5.2599 Q170.8942 4.4943 170.2457 3.2365 Q169.5973 1.9787 169.5973 0.5724 Q169.5973 -0.8807 170.3082 -2.1229 Q171.0192 -3.3651 172.2379 -4.1073 Q173.4567 -4.8495 174.9254 -4.8495 Q175.8004 -4.8495 176.5817 -4.4823 Q177.3629 -4.1151 177.9411 -3.4588 L177.9411 -8.4432 Q177.9411 -9.0838 177.7457 -9.3729 Q177.5504 -9.662 177.1989 -9.7245 Q176.8473 -9.787 176.0817 -9.787 L176.0817 -10.6307 L179.6286 -10.8963 L179.6286 3.5724 Q179.6286 4.213 179.8239 4.5021 Q180.0192 4.7912 180.3786 4.8537 Q180.7379 4.9162 181.4879 4.9162 L181.4879 5.7599 L177.8786 6.0255 L177.8786 4.5099 Q177.2536 5.2287 176.3942 5.6271 Q175.5348 6.0255 174.6598 6.0255 ZM172.2067 3.6662 Q172.6286 4.463 173.3082 4.9318 Q173.9879 5.4005 174.8004 5.4005 Q175.8004 5.4005 176.6286 4.8224 Q177.4567 4.2443 177.8786 3.338 L177.8786 -2.4276 Q177.5973 -2.9432 177.1676 -3.3651 Q176.7379 -3.787 176.2067 -4.0057 Q175.6754 -4.2245 175.0661 -4.2245 Q173.8161 -4.2245 173.0582 -3.5135 Q172.3004 -2.8026 171.9957 -1.701 Q171.6911 -0.5995 171.6911 0.6037 Q171.6911 1.5568 171.7848 2.2755 Q171.8786 2.9943 172.2067 3.6662 Z"
         id="path283" />
      <path
         style="stroke:none;"
         d="M183.1026 3.4005 Q183.1026 1.9787 184.2276 1.0802 Q185.3526 0.1818 186.9229 -0.1854 Q188.4932 -0.5526 189.9151 -0.5526 L189.9151 -1.537 Q189.9151 -2.2401 189.6104 -2.8885 Q189.3057 -3.537 188.7354 -3.951 Q188.1651 -4.3651 187.4619 -4.3651 Q185.8682 -4.3651 185.0401 -3.6463 Q185.4932 -3.6463 185.7979 -3.3026 Q186.1026 -2.9588 186.1026 -2.5057 Q186.1026 -2.0213 185.7588 -1.6854 Q185.4151 -1.3495 184.9463 -1.3495 Q184.4619 -1.3495 184.126 -1.6854 Q183.7901 -2.0213 183.7901 -2.5057 Q183.7901 -3.7713 184.9385 -4.3885 Q186.0869 -5.0057 187.4619 -5.0057 Q188.4463 -5.0057 189.4307 -4.5838 Q190.4151 -4.162 191.0401 -3.3885 Q191.6651 -2.6151 191.6651 -1.5838 L191.6651 3.8068 Q191.6651 4.2755 191.8604 4.674 Q192.0557 5.0724 192.4776 5.0724 Q192.8838 5.0724 193.0791 4.674 Q193.2744 4.2755 193.2744 3.8068 L193.2744 2.2755 L193.9776 2.2755 L193.9776 3.8068 Q193.9776 4.3537 193.6963 4.838 Q193.4151 5.3224 192.9385 5.6115 Q192.4619 5.9005 191.9151 5.9005 Q191.2119 5.9005 190.6963 5.3537 Q190.1807 4.8068 190.1338 4.0568 Q189.6807 4.963 188.8135 5.4943 Q187.9463 6.0255 186.9619 6.0255 Q186.0557 6.0255 185.1651 5.7599 Q184.2744 5.4943 183.6885 4.9083 Q183.1026 4.3224 183.1026 3.4005 ZM185.0401 3.4005 Q185.0401 4.2443 185.6651 4.8224 Q186.2901 5.4005 187.1338 5.4005 Q187.8994 5.4005 188.5322 5.0099 Q189.1651 4.6193 189.5401 3.9552 Q189.9151 3.2912 189.9151 2.5412 L189.9151 0.0568 Q188.8213 0.0568 187.6807 0.4083 Q186.5401 0.7599 185.7901 1.5255 Q185.0401 2.2912 185.0401 3.4005 Z"
         id="path285" />
    </g>
    <g
       style="stroke-linecap:butt; fill:red; text-rendering:geometricPrecision; image-rendering:optimizeQuality; color-rendering:optimizeQuality; stroke-linejoin:bevel; stroke-dasharray:10,6; stroke:red; color-interpolation:linearRGB; stroke-width:0.6667; stroke-miterlimit:1;"
       id="g291">
      <line
         y2="105.6264"
         style="fill:none;"
         x1="925.0018"
         x2="965.0195"
         y1="105.6264"
         id="line289" />
    </g>
    <g
       style="stroke-linecap:butt; fill:rgb(38,38,38); text-rendering:geometricPrecision; color-rendering:optimizeQuality; image-rendering:optimizeQuality; stroke:rgb(38,38,38); color-interpolation:linearRGB; stroke-width:0.6667;"
       id="g295">
      <path
         d="M921 122 L921 60 L1220 60 L1220 122 Z"
         style="fill:none; fill-rule:evenodd;"
         id="path293" />
    </g>
  </g>
</svg>
